<svg width="18" height="16" viewBox="0 0 18 16" fill="none" xmlns="http://www.w3.org/2000/svg">
<path d="M17.6239 3.98027C17.4169 3.20079 16.8069 2.5869 16.0325 2.37857C14.6288 2 9 2 9 2C9 2 3.37127 2 1.96752 2.37857C1.19308 2.58693 0.583143 3.20079 0.376127 3.98027C0 5.39312 0 8.34091 0 8.34091C0 8.34091 0 11.2887 0.376127 12.7015C0.583143 13.481 1.19308 14.0693 1.96752 14.2777C3.37127 14.6562 9 14.6562 9 14.6562C9 14.6562 14.6287 14.6562 16.0325 14.2777C16.8069 14.0693 17.4169 13.481 17.6239 12.7015C18 11.2887 18 8.34091 18 8.34091C18 8.34091 18 5.39312 17.6239 3.98027ZM7.15908 11.0173V5.66454L11.8636 8.34097L7.15908 11.0173Z" fill="white"/>
</svg>
