<svg width="453" height="282" viewBox="0 0 453 282" fill="none" xmlns="http://www.w3.org/2000/svg">
<rect x="0.434236" y="0.434236" width="452.132" height="281.132" rx="21.2776" fill="url(#paint0_radial_316_75)" stroke="url(#paint1_linear_316_75)" stroke-width="0.868472"/>
<path d="M291.643 43V38.2002L291.599 38.498L289.973 43H289.641L288 38.498L287.961 38.2002V43H287.331V35.998H287.658L289.782 41.7402L289.802 41.999L289.821 41.7402L291.94 35.998H292.272V43H291.643ZM296.916 41.6279C296.916 41.8298 296.877 42.0202 296.799 42.1992C296.724 42.3783 296.62 42.5345 296.486 42.668C296.353 42.8014 296.197 42.9072 296.018 42.9854C295.839 43.0602 295.648 43.0977 295.446 43.0977H295.046C294.844 43.0977 294.654 43.0602 294.475 42.9854C294.296 42.9072 294.139 42.8014 294.006 42.668C293.872 42.5345 293.767 42.3783 293.688 42.1992C293.614 42.0202 293.576 41.8298 293.576 41.6279V39.3721C293.576 39.1702 293.614 38.9798 293.688 38.8008C293.767 38.6217 293.872 38.4655 294.006 38.332C294.139 38.1986 294.296 38.0944 294.475 38.0195C294.654 37.9414 294.844 37.9023 295.046 37.9023H295.446C295.648 37.9023 295.839 37.9414 296.018 38.0195C296.197 38.0944 296.353 38.1986 296.486 38.332C296.62 38.4655 296.724 38.6217 296.799 38.8008C296.877 38.9798 296.916 39.1702 296.916 39.3721V41.6279ZM296.315 39.3379C296.315 39.2174 296.293 39.1051 296.247 39.001C296.201 38.8936 296.14 38.8008 296.062 38.7227C295.983 38.6445 295.891 38.5827 295.783 38.5371C295.679 38.4915 295.567 38.4688 295.446 38.4688H295.046C294.925 38.4688 294.812 38.4915 294.704 38.5371C294.6 38.5827 294.509 38.6445 294.431 38.7227C294.353 38.8008 294.291 38.8936 294.245 39.001C294.2 39.1051 294.177 39.2174 294.177 39.3379V41.6621C294.177 41.7826 294.2 41.8965 294.245 42.0039C294.291 42.1081 294.353 42.1992 294.431 42.2773C294.509 42.3555 294.6 42.4173 294.704 42.4629C294.812 42.5085 294.925 42.5312 295.046 42.5312H295.446C295.567 42.5312 295.679 42.5085 295.783 42.4629C295.891 42.4173 295.983 42.3555 296.062 42.2773C296.14 42.1992 296.201 42.1081 296.247 42.0039C296.293 41.8965 296.315 41.7826 296.315 41.6621V39.3379ZM300.856 43V39.3379C300.856 39.2174 300.834 39.1051 300.788 39.001C300.743 38.8936 300.681 38.8008 300.603 38.7227C300.524 38.6445 300.432 38.5827 300.324 38.5371C300.22 38.4915 300.108 38.4688 299.987 38.4688H299.587C299.466 38.4688 299.353 38.4915 299.245 38.5371C299.141 38.5827 299.05 38.6445 298.972 38.7227C298.894 38.8008 298.832 38.8936 298.786 39.001C298.741 39.1051 298.718 39.2174 298.718 39.3379V43H298.117V38H298.317L298.645 38.5078C298.781 38.3223 298.952 38.1758 299.157 38.0684C299.366 37.9577 299.592 37.9023 299.836 37.9023H299.987C300.189 37.9023 300.38 37.9414 300.559 38.0195C300.738 38.0944 300.894 38.1986 301.027 38.332C301.161 38.4655 301.265 38.6217 301.34 38.8008C301.418 38.9798 301.457 39.1702 301.457 39.3721V43H300.856ZM303.01 44.4014H302.756V42.248H303.508L303.01 44.4014ZM310.949 41.3789C310.949 41.6165 310.904 41.8395 310.812 42.0479C310.725 42.2562 310.603 42.4385 310.446 42.5947C310.29 42.751 310.108 42.8747 309.899 42.9658C309.691 43.0537 309.468 43.0977 309.23 43.0977H308.933C308.695 43.0977 308.47 43.0537 308.259 42.9658C308.05 42.8747 307.868 42.751 307.712 42.5947C307.556 42.4385 307.432 42.2562 307.341 42.0479C307.253 41.8395 307.209 41.6165 307.209 41.3789V41.1982L307.839 41.1006V41.3789C307.839 41.5352 307.868 41.6816 307.927 41.8184C307.985 41.9518 308.065 42.0706 308.166 42.1748C308.27 42.2757 308.389 42.3555 308.522 42.4141C308.659 42.4727 308.806 42.502 308.962 42.502H309.201C309.357 42.502 309.502 42.4727 309.636 42.4141C309.772 42.3555 309.891 42.2757 309.992 42.1748C310.093 42.0706 310.173 41.9518 310.231 41.8184C310.29 41.6816 310.319 41.5352 310.319 41.3789V40.7979C310.319 40.6416 310.29 40.4967 310.231 40.3633C310.173 40.2266 310.093 40.1077 309.992 40.0068C309.891 39.9059 309.772 39.8262 309.636 39.7676C309.502 39.709 309.357 39.6797 309.201 39.6797H308.732V39.0791H309.201C309.357 39.0791 309.502 39.0498 309.636 38.9912C309.772 38.9326 309.891 38.8529 309.992 38.752C310.093 38.651 310.173 38.5339 310.231 38.4004C310.29 38.2637 310.319 38.1172 310.319 37.9609V37.6191C310.319 37.4629 310.29 37.318 310.231 37.1846C310.173 37.0479 310.093 36.929 309.992 36.8281C309.891 36.7272 309.772 36.6475 309.636 36.5889C309.502 36.5303 309.357 36.501 309.201 36.501H308.962C308.806 36.501 308.659 36.5303 308.522 36.5889C308.389 36.6475 308.27 36.7272 308.166 36.8281C308.065 36.929 307.985 37.0479 307.927 37.1846C307.868 37.318 307.839 37.4629 307.839 37.6191V37.9023L307.209 37.7998V37.6191C307.209 37.3815 307.253 37.1585 307.341 36.9502C307.432 36.7419 307.556 36.5596 307.712 36.4033C307.868 36.2471 308.05 36.125 308.259 36.0371C308.47 35.946 308.695 35.9004 308.933 35.9004H309.23C309.468 35.9004 309.691 35.946 309.899 36.0371C310.108 36.125 310.29 36.2471 310.446 36.4033C310.603 36.5596 310.725 36.7419 310.812 36.9502C310.904 37.1585 310.949 37.3815 310.949 37.6191V37.8584C310.949 38.0244 310.926 38.1839 310.881 38.3369C310.839 38.4867 310.777 38.6266 310.695 38.7568C310.617 38.887 310.523 39.0059 310.412 39.1133C310.301 39.2174 310.178 39.307 310.041 39.3818C310.178 39.4535 310.301 39.543 310.412 39.6504C310.523 39.7546 310.617 39.8717 310.695 40.002C310.777 40.1322 310.839 40.2738 310.881 40.4268C310.926 40.5765 310.949 40.7344 310.949 40.9004V41.3789ZM312.458 43V42.3994H314.128V36.5986L312.458 37.3018V36.7012L314.128 35.998H314.758V42.3994H316.428V43H312.458ZM323.078 41.3789C323.078 41.6165 323.033 41.8395 322.941 42.0479C322.854 42.2562 322.731 42.4385 322.575 42.5947C322.419 42.751 322.237 42.8747 322.028 42.9658C321.82 43.0537 321.597 43.0977 321.359 43.0977H321.159C320.922 43.0977 320.697 43.0537 320.485 42.9658C320.277 42.8747 320.095 42.751 319.938 42.5947C319.782 42.4385 319.659 42.2562 319.567 42.0479C319.479 41.8395 319.436 41.6165 319.436 41.3789V41.1006L320.065 40.998V41.3789C320.065 41.5352 320.095 41.6816 320.153 41.8184C320.212 41.9518 320.292 42.0706 320.393 42.1748C320.497 42.2757 320.616 42.3555 320.749 42.4141C320.886 42.4727 321.032 42.502 321.188 42.502H321.33C321.483 42.502 321.628 42.4727 321.765 42.4141C321.901 42.3555 322.02 42.2757 322.121 42.1748C322.222 42.0706 322.302 41.9518 322.36 41.8184C322.419 41.6816 322.448 41.5352 322.448 41.3789V35.998H323.078V41.3789ZM327.419 43L327.087 42.502C326.95 42.681 326.779 42.8258 326.574 42.9365C326.369 43.0439 326.145 43.0977 325.9 43.0977H325.749C325.547 43.0977 325.357 43.0602 325.178 42.9854C324.999 42.9072 324.842 42.8014 324.709 42.668C324.576 42.5345 324.47 42.3783 324.392 42.1992C324.317 42.0202 324.279 41.8298 324.279 41.6279V41.5791C324.279 41.3773 324.317 41.1868 324.392 41.0078C324.47 40.8288 324.576 40.6725 324.709 40.5391C324.842 40.4056 324.999 40.3014 325.178 40.2266C325.357 40.1484 325.547 40.1094 325.749 40.1094H327.019V39.3379C327.019 39.2174 326.996 39.1051 326.95 39.001C326.905 38.8936 326.843 38.8008 326.765 38.7227C326.687 38.6445 326.594 38.5827 326.486 38.5371C326.382 38.4915 326.27 38.4688 326.149 38.4688H325.798C325.677 38.4688 325.563 38.4915 325.456 38.5371C325.352 38.5827 325.261 38.6445 325.183 38.7227C325.104 38.8008 325.043 38.8936 324.997 39.001C324.951 39.1051 324.929 39.2174 324.929 39.3379V39.5186L324.328 39.4209V39.3721C324.328 39.1702 324.366 38.9798 324.44 38.8008C324.519 38.6217 324.624 38.4655 324.758 38.332C324.891 38.1986 325.048 38.0944 325.227 38.0195C325.406 37.9414 325.596 37.9023 325.798 37.9023H326.149C326.351 37.9023 326.542 37.9414 326.721 38.0195C326.9 38.0944 327.056 38.1986 327.189 38.332C327.323 38.4655 327.427 38.6217 327.502 38.8008C327.58 38.9798 327.619 39.1702 327.619 39.3721V43H327.419ZM327.019 40.5781H325.749C325.629 40.5781 325.515 40.6009 325.407 40.6465C325.303 40.6921 325.212 40.7555 325.134 40.8369C325.056 40.915 324.994 41.0078 324.948 41.1152C324.903 41.2194 324.88 41.3317 324.88 41.4521V41.6621C324.88 41.7826 324.903 41.8965 324.948 42.0039C324.994 42.1081 325.056 42.1992 325.134 42.2773C325.212 42.3555 325.303 42.4173 325.407 42.4629C325.515 42.5085 325.629 42.5312 325.749 42.5312H326.149C326.27 42.5312 326.382 42.5085 326.486 42.4629C326.594 42.4173 326.687 42.3555 326.765 42.2773C326.843 42.1992 326.905 42.1081 326.95 42.0039C326.996 41.8965 327.019 41.7826 327.019 41.6621V40.5781ZM331.56 43V39.3379C331.56 39.2174 331.537 39.1051 331.491 39.001C331.446 38.8936 331.384 38.8008 331.306 38.7227C331.228 38.6445 331.135 38.5827 331.027 38.5371C330.923 38.4915 330.811 38.4688 330.69 38.4688H330.29C330.17 38.4688 330.056 38.4915 329.948 38.5371C329.844 38.5827 329.753 38.6445 329.675 38.7227C329.597 38.8008 329.535 38.8936 329.489 39.001C329.444 39.1051 329.421 39.2174 329.421 39.3379V43H328.82V38H329.021L329.348 38.5078C329.484 38.3223 329.655 38.1758 329.86 38.0684C330.069 37.9577 330.295 37.9023 330.539 37.9023H330.69C330.892 37.9023 331.083 37.9414 331.262 38.0195C331.441 38.0944 331.597 38.1986 331.73 38.332C331.864 38.4655 331.968 38.6217 332.043 38.8008C332.121 38.9798 332.16 39.1702 332.16 39.3721V43H331.56ZM337.365 36.501C337.209 36.501 337.062 36.5303 336.926 36.5889C336.792 36.6475 336.675 36.7272 336.574 36.8281C336.473 36.929 336.394 37.0479 336.335 37.1846C336.276 37.318 336.247 37.4629 336.247 37.6191V37.9023L335.617 37.7998V37.6191C335.617 37.3815 335.661 37.1585 335.749 36.9502C335.84 36.7419 335.964 36.5596 336.12 36.4033C336.276 36.2471 336.459 36.125 336.667 36.0371C336.875 35.946 337.098 35.9004 337.336 35.9004H337.634C337.871 35.9004 338.094 35.9427 338.303 36.0273C338.514 36.112 338.698 36.234 338.854 36.3936C339.011 36.5531 339.133 36.7451 339.221 36.9697C339.312 37.1911 339.357 37.4417 339.357 37.7217C339.357 37.9984 339.315 38.2767 339.23 38.5566C339.149 38.8366 339.04 39.1117 338.903 39.3818C338.77 39.652 338.615 39.9141 338.439 40.168C338.267 40.4219 338.09 40.6611 337.907 40.8857C337.481 41.4098 336.997 41.9144 336.457 42.3994H339.406V43H335.466V42.502C336.075 42.0007 336.618 41.4814 337.097 40.9443C337.302 40.7132 337.502 40.4674 337.697 40.207C337.893 39.9466 338.067 39.6797 338.22 39.4062C338.373 39.1296 338.495 38.8496 338.586 38.5664C338.68 38.2799 338.728 37.9984 338.728 37.7217C338.728 37.5166 338.697 37.3376 338.635 37.1846C338.573 37.0316 338.49 36.9046 338.386 36.8037C338.282 36.7028 338.161 36.6279 338.024 36.5791C337.891 36.527 337.751 36.501 337.604 36.501H337.365ZM344.445 41.3789C344.445 41.6165 344.4 41.8395 344.309 42.0479C344.221 42.2562 344.099 42.4385 343.942 42.5947C343.786 42.751 343.604 42.8747 343.396 42.9658C343.187 43.0537 342.964 43.0977 342.727 43.0977H342.429C342.191 43.0977 341.966 43.0537 341.755 42.9658C341.547 42.8747 341.364 42.751 341.208 42.5947C341.052 42.4385 340.928 42.2562 340.837 42.0479C340.749 41.8395 340.705 41.6165 340.705 41.3789V37.6191C340.705 37.3815 340.749 37.1585 340.837 36.9502C340.928 36.7419 341.052 36.5596 341.208 36.4033C341.364 36.2471 341.547 36.125 341.755 36.0371C341.966 35.946 342.191 35.9004 342.429 35.9004H342.727C342.964 35.9004 343.187 35.946 343.396 36.0371C343.604 36.125 343.786 36.2471 343.942 36.4033C344.099 36.5596 344.221 36.7419 344.309 36.9502C344.4 37.1585 344.445 37.3815 344.445 37.6191V41.3789ZM343.815 37.6191C343.815 37.4629 343.786 37.318 343.728 37.1846C343.669 37.0479 343.589 36.929 343.488 36.8281C343.387 36.7272 343.269 36.6475 343.132 36.5889C342.998 36.5303 342.854 36.501 342.697 36.501H342.458C342.302 36.501 342.155 36.5303 342.019 36.5889C341.885 36.6475 341.766 36.7272 341.662 36.8281C341.561 36.929 341.481 37.0479 341.423 37.1846C341.364 37.318 341.335 37.4629 341.335 37.6191V41.3789C341.335 41.5352 341.364 41.6816 341.423 41.8184C341.481 41.9518 341.561 42.0706 341.662 42.1748C341.766 42.2757 341.885 42.3555 342.019 42.4141C342.155 42.4727 342.302 42.502 342.458 42.502H342.697C342.854 42.502 342.998 42.4727 343.132 42.4141C343.269 42.3555 343.387 42.2757 343.488 42.1748C343.589 42.0706 343.669 41.9518 343.728 41.8184C343.786 41.6816 343.815 41.5352 343.815 41.3789V37.6191ZM347.453 36.501C347.297 36.501 347.15 36.5303 347.014 36.5889C346.88 36.6475 346.763 36.7272 346.662 36.8281C346.561 36.929 346.481 37.0479 346.423 37.1846C346.364 37.318 346.335 37.4629 346.335 37.6191V37.9023L345.705 37.7998V37.6191C345.705 37.3815 345.749 37.1585 345.837 36.9502C345.928 36.7419 346.052 36.5596 346.208 36.4033C346.364 36.2471 346.547 36.125 346.755 36.0371C346.963 35.946 347.186 35.9004 347.424 35.9004H347.722C347.959 35.9004 348.182 35.9427 348.391 36.0273C348.602 36.112 348.786 36.234 348.942 36.3936C349.099 36.5531 349.221 36.7451 349.309 36.9697C349.4 37.1911 349.445 37.4417 349.445 37.7217C349.445 37.9984 349.403 38.2767 349.318 38.5566C349.237 38.8366 349.128 39.1117 348.991 39.3818C348.858 39.652 348.703 39.9141 348.527 40.168C348.355 40.4219 348.177 40.6611 347.995 40.8857C347.569 41.4098 347.085 41.9144 346.545 42.3994H349.494V43H345.554V42.502C346.162 42.0007 346.706 41.4814 347.185 40.9443C347.39 40.7132 347.59 40.4674 347.785 40.207C347.98 39.9466 348.155 39.6797 348.308 39.4062C348.461 39.1296 348.583 38.8496 348.674 38.5664C348.768 38.2799 348.815 37.9984 348.815 37.7217C348.815 37.5166 348.785 37.3376 348.723 37.1846C348.661 37.0316 348.578 36.9046 348.474 36.8037C348.369 36.7028 348.249 36.6279 348.112 36.5791C347.979 36.527 347.839 36.501 347.692 36.501H347.453ZM354.533 41.3789C354.533 41.6165 354.488 41.8395 354.396 42.0479C354.309 42.2562 354.187 42.4385 354.03 42.5947C353.874 42.751 353.692 42.8747 353.483 42.9658C353.275 43.0537 353.052 43.0977 352.814 43.0977H352.517C352.279 43.0977 352.054 43.0537 351.843 42.9658C351.634 42.8747 351.452 42.751 351.296 42.5947C351.14 42.4385 351.016 42.2562 350.925 42.0479C350.837 41.8395 350.793 41.6165 350.793 41.3789V41.1982L351.423 41.1006V41.3789C351.423 41.5352 351.452 41.6816 351.511 41.8184C351.569 41.9518 351.649 42.0706 351.75 42.1748C351.854 42.2757 351.973 42.3555 352.106 42.4141C352.243 42.4727 352.39 42.502 352.546 42.502H352.785C352.941 42.502 353.086 42.4727 353.22 42.4141C353.356 42.3555 353.475 42.2757 353.576 42.1748C353.677 42.0706 353.757 41.9518 353.815 41.8184C353.874 41.6816 353.903 41.5352 353.903 41.3789V40.7979C353.903 40.6416 353.874 40.4967 353.815 40.3633C353.757 40.2266 353.677 40.1077 353.576 40.0068C353.475 39.9059 353.356 39.8262 353.22 39.7676C353.086 39.709 352.941 39.6797 352.785 39.6797H352.316V39.0791H352.785C352.941 39.0791 353.086 39.0498 353.22 38.9912C353.356 38.9326 353.475 38.8529 353.576 38.752C353.677 38.651 353.757 38.5339 353.815 38.4004C353.874 38.2637 353.903 38.1172 353.903 37.9609V37.6191C353.903 37.4629 353.874 37.318 353.815 37.1846C353.757 37.0479 353.677 36.929 353.576 36.8281C353.475 36.7272 353.356 36.6475 353.22 36.5889C353.086 36.5303 352.941 36.501 352.785 36.501H352.546C352.39 36.501 352.243 36.5303 352.106 36.5889C351.973 36.6475 351.854 36.7272 351.75 36.8281C351.649 36.929 351.569 37.0479 351.511 37.1846C351.452 37.318 351.423 37.4629 351.423 37.6191V37.9023L350.793 37.7998V37.6191C350.793 37.3815 350.837 37.1585 350.925 36.9502C351.016 36.7419 351.14 36.5596 351.296 36.4033C351.452 36.2471 351.634 36.125 351.843 36.0371C352.054 35.946 352.279 35.9004 352.517 35.9004H352.814C353.052 35.9004 353.275 35.946 353.483 36.0371C353.692 36.125 353.874 36.2471 354.03 36.4033C354.187 36.5596 354.309 36.7419 354.396 36.9502C354.488 37.1585 354.533 37.3815 354.533 37.6191V37.8584C354.533 38.0244 354.51 38.1839 354.465 38.3369C354.423 38.4867 354.361 38.6266 354.279 38.7568C354.201 38.887 354.107 39.0059 353.996 39.1133C353.885 39.2174 353.762 39.307 353.625 39.3818C353.762 39.4535 353.885 39.543 353.996 39.6504C354.107 39.7546 354.201 39.8717 354.279 40.002C354.361 40.1322 354.423 40.2738 354.465 40.4268C354.51 40.5765 354.533 40.7344 354.533 40.9004V41.3789ZM355.91 44.4014H355.656V42.248H356.408L355.91 44.4014ZM361.711 36.501C361.555 36.501 361.408 36.5303 361.271 36.5889C361.138 36.6475 361.021 36.7272 360.92 36.8281C360.819 36.929 360.739 37.0479 360.681 37.1846C360.622 37.318 360.593 37.4629 360.593 37.6191V37.9023L359.963 37.7998V37.6191C359.963 37.3815 360.007 37.1585 360.095 36.9502C360.186 36.7419 360.31 36.5596 360.466 36.4033C360.622 36.2471 360.804 36.125 361.013 36.0371C361.221 35.946 361.444 35.9004 361.682 35.9004H361.979C362.217 35.9004 362.44 35.9427 362.648 36.0273C362.86 36.112 363.044 36.234 363.2 36.3936C363.356 36.5531 363.479 36.7451 363.566 36.9697C363.658 37.1911 363.703 37.4417 363.703 37.7217C363.703 37.9984 363.661 38.2767 363.576 38.5566C363.495 38.8366 363.386 39.1117 363.249 39.3818C363.116 39.652 362.961 39.9141 362.785 40.168C362.613 40.4219 362.435 40.6611 362.253 40.8857C361.826 41.4098 361.343 41.9144 360.803 42.3994H363.752V43H359.812V42.502C360.42 42.0007 360.964 41.4814 361.442 40.9443C361.647 40.7132 361.848 40.4674 362.043 40.207C362.238 39.9466 362.412 39.6797 362.565 39.4062C362.718 39.1296 362.84 38.8496 362.932 38.5664C363.026 38.2799 363.073 37.9984 363.073 37.7217C363.073 37.5166 363.042 37.3376 362.98 37.1846C362.919 37.0316 362.836 36.9046 362.731 36.8037C362.627 36.7028 362.507 36.6279 362.37 36.5791C362.237 36.527 362.097 36.501 361.95 36.501H361.711ZM365.051 38.752V38H365.803V38.752H365.051ZM365.051 43V42.248H365.803V43H365.051ZM368.801 36.501C368.645 36.501 368.498 36.5303 368.361 36.5889C368.228 36.6475 368.111 36.7272 368.01 36.8281C367.909 36.929 367.829 37.0479 367.771 37.1846C367.712 37.318 367.683 37.4629 367.683 37.6191V37.9023L367.053 37.7998V37.6191C367.053 37.3815 367.097 37.1585 367.185 36.9502C367.276 36.7419 367.399 36.5596 367.556 36.4033C367.712 36.2471 367.894 36.125 368.103 36.0371C368.311 35.946 368.534 35.9004 368.771 35.9004H369.069C369.307 35.9004 369.53 35.9427 369.738 36.0273C369.95 36.112 370.134 36.234 370.29 36.3936C370.446 36.5531 370.568 36.7451 370.656 36.9697C370.747 37.1911 370.793 37.4417 370.793 37.7217C370.793 37.9984 370.751 38.2767 370.666 38.5566C370.585 38.8366 370.476 39.1117 370.339 39.3818C370.205 39.652 370.051 39.9141 369.875 40.168C369.702 40.4219 369.525 40.6611 369.343 40.8857C368.916 41.4098 368.433 41.9144 367.893 42.3994H370.842V43H366.901V42.502C367.51 42.0007 368.054 41.4814 368.532 40.9443C368.737 40.7132 368.938 40.4674 369.133 40.207C369.328 39.9466 369.502 39.6797 369.655 39.4062C369.808 39.1296 369.93 38.8496 370.021 38.5664C370.116 38.2799 370.163 37.9984 370.163 37.7217C370.163 37.5166 370.132 37.3376 370.07 37.1846C370.008 37.0316 369.925 36.9046 369.821 36.8037C369.717 36.7028 369.597 36.6279 369.46 36.5791C369.326 36.527 369.187 36.501 369.04 36.501H368.801ZM375.856 41.3789C375.856 41.6165 375.811 41.8395 375.72 42.0479C375.632 42.2562 375.51 42.4385 375.354 42.5947C375.197 42.751 375.015 42.8747 374.807 42.9658C374.598 43.0537 374.375 43.0977 374.138 43.0977H373.835C373.597 43.0977 373.374 43.0537 373.166 42.9658C372.958 42.8747 372.775 42.751 372.619 42.5947C372.463 42.4385 372.339 42.2562 372.248 42.0479C372.16 41.8395 372.116 41.6165 372.116 41.3789V37.6191C372.116 37.3815 372.16 37.1585 372.248 36.9502C372.339 36.7419 372.463 36.5596 372.619 36.4033C372.775 36.2471 372.958 36.125 373.166 36.0371C373.374 35.946 373.597 35.9004 373.835 35.9004H374.138C374.375 35.9004 374.598 35.946 374.807 36.0371C375.015 36.125 375.197 36.2471 375.354 36.4033C375.51 36.5596 375.632 36.7419 375.72 36.9502C375.811 37.1585 375.856 37.3815 375.856 37.6191V37.7998L375.227 37.9023V37.6191C375.227 37.4629 375.197 37.318 375.139 37.1846C375.08 37.0479 374.999 36.929 374.895 36.8281C374.794 36.7272 374.675 36.6475 374.538 36.5889C374.405 36.5303 374.26 36.501 374.104 36.501H373.864C373.708 36.501 373.562 36.5303 373.425 36.5889C373.291 36.6475 373.174 36.7272 373.073 36.8281C372.972 36.929 372.893 37.0479 372.834 37.1846C372.775 37.318 372.746 37.4629 372.746 37.6191V39.3623C372.906 39.1865 373.096 39.0465 373.317 38.9424C373.542 38.835 373.781 38.7812 374.035 38.7812H374.138C374.375 38.7812 374.598 38.8268 374.807 38.918C375.015 39.0059 375.197 39.1279 375.354 39.2842C375.51 39.4404 375.632 39.6227 375.72 39.8311C375.811 40.0394 375.856 40.2624 375.856 40.5V41.3789ZM375.227 40.5C375.227 40.3438 375.197 40.1989 375.139 40.0654C375.08 39.9287 374.999 39.8099 374.895 39.709C374.794 39.6081 374.675 39.5283 374.538 39.4697C374.405 39.4111 374.26 39.3818 374.104 39.3818H373.864C373.708 39.3818 373.562 39.4111 373.425 39.4697C373.291 39.5283 373.174 39.6081 373.073 39.709C372.972 39.8099 372.893 39.9287 372.834 40.0654C372.775 40.1989 372.746 40.3438 372.746 40.5V41.3789C372.746 41.5352 372.775 41.6816 372.834 41.8184C372.893 41.9518 372.972 42.0706 373.073 42.1748C373.174 42.2757 373.291 42.3555 373.425 42.4141C373.562 42.4727 373.708 42.502 373.864 42.502H374.104C374.26 42.502 374.405 42.4727 374.538 42.4141C374.675 42.3555 374.794 42.2757 374.895 42.1748C374.999 42.0706 375.08 41.9518 375.139 41.8184C375.197 41.6816 375.227 41.5352 375.227 41.3789V40.5ZM383.508 38.5908C383.508 38.8285 383.462 39.0514 383.371 39.2598C383.283 39.4681 383.161 39.6504 383.005 39.8066C382.849 39.9629 382.665 40.0866 382.453 40.1777C382.245 40.2656 382.022 40.3096 381.784 40.3096H380.197V43H379.567V35.998H381.784C382.022 35.998 382.245 36.0436 382.453 36.1348C382.665 36.2227 382.849 36.3447 383.005 36.501C383.161 36.6572 383.283 36.8411 383.371 37.0527C383.462 37.2611 383.508 37.484 383.508 37.7217V38.5908ZM382.878 37.7217C382.878 37.5654 382.849 37.4206 382.79 37.2871C382.731 37.1504 382.65 37.0316 382.546 36.9307C382.445 36.8265 382.326 36.7451 382.189 36.6865C382.056 36.6279 381.911 36.5986 381.755 36.5986H380.197V39.709H381.755C381.911 39.709 382.056 39.6797 382.189 39.6211C382.326 39.5625 382.445 39.4827 382.546 39.3818C382.65 39.2809 382.731 39.1637 382.79 39.0303C382.849 38.8936 382.878 38.7471 382.878 38.5908V37.7217ZM389.025 43V38.2002L388.981 38.498L387.355 43H387.023L385.383 38.498L385.344 38.2002V43H384.714V35.998H385.041L387.165 41.7402L387.185 41.999L387.204 41.7402L389.323 35.998H389.655V43H389.025Z" fill="white"/>
<path d="M35.312 230L37.1628 221.304L38.6435 216.957L40.1241 219.13H42.7152L46.0467 226.739L48.2676 223.478L49.7483 213.696L51.9693 221.304L53.8201 216.957L55.3007 221.304L57.1515 219.13L59.0023 223.478L61.2233 213.696L63.0741 221.304L64.9249 223.478L68.6265 219.13L70.1072 221.304H72.3281L73.8088 226.739L76.0297 230L77.8805 221.304L80.1015 226.739L81.5821 224.565L85.2838 226.739L87.1346 213.696L88.6152 221.304H90.8362L93.0571 205L94.5378 210.435L96.3886 202.826L98.6096 210.435L100.46 205L101.571 213.696L103.792 219.13L106.013 216.957L107.493 200.652L109.344 221.304L111.565 208.261H113.046L114.897 210.435L116.747 205L118.968 210.435L120.819 205L122.3 210.435L124.151 206.087L126.372 216.957L127.852 213.696L129.703 226.739L135.626 197.391L137.106 213.696L139.327 206.087L141.178 219.13L143.029 198.478L144.88 210.435L146.73 200.652L150.432 216.957L152.283 221.304L155.985 202.826L158.205 216.957L159.686 208.261L161.537 216.957L170.421 168.043L174.863 202.826L178.564 208.261L180.785 193.043L183.006 200.652L187.818 171.304L193.741 202.826L196.702 193.043L197.443 200.652L200.774 185.435L203.735 200.652L206.326 198.478L207.807 193.043L209.288 200.652L211.509 202.826L213.73 225.652L218.542 135.435L226.315 208.261L228.536 213.696L230.387 195.217L231.868 206.087H234.089L235.939 198.478L239.271 168.043L241.122 169.13L242.972 156.087L244.823 168.043L246.674 175.652H248.895L252.597 158.261L254.077 171.304L256.298 158.261L258.149 178.913L259.63 153.913H261.48L263.701 177.826L265.552 160.435L267.033 187.609L269.254 175.652H271.105L272.955 160.435L274.066 164.783L276.657 158.261L280.359 193.043L282.209 164.783L285.911 103.913L291.463 178.913L292.944 174.565L295.165 175.652L296.646 169.13L298.867 171.304L300.718 125.652L302.568 135.435L308.121 132.174L311.452 150.652L313.303 130L315.894 147.391L317.375 125.652L319.226 120.217L321.076 144.13L323.297 140.87L325.148 144.13L326.999 135.435L328.48 103.913L330.33 144.13L332.551 156.087L334.402 132.174L335.883 138.696L337.734 160.435L339.955 153.913L341.435 120.217L342.916 144.13L344.767 140.87L346.617 150.652L349.209 125.652L351.059 123.478L352.91 115.87L354.391 138.696L356.612 127.826L358.463 144.13L360.313 138.696L361.794 123.478L363.645 127.826L365.866 105L367.347 138.696L369.567 153.913L371.418 135.435L372.899 140.87L375.12 134.348L376.971 153.913L378.822 125.652L380.302 127.826H382.523L384.374 103.913L385.114 134.348L388.076 106.087L389.926 116.957L391.407 138.696L393.628 150.652L395.479 123.478L396.959 127.826L399.18 80L401.031 115.87L402.882 110.435L404.733 82.1739L408.434 88.6957L410.285 102.826L411.766 127.826L413.987 103.913L415.838 116.957L417.688 95.2174" stroke="#1595C2" stroke-linecap="round" stroke-linejoin="round"/>
<path d="M35.3125 80.4658L417.689 80.6665" stroke="white" stroke-opacity="0.08"/>
<path opacity="0.6" d="M35.312 110.466L417.688 110.666" stroke="white" stroke-opacity="0.08"/>
<path opacity="0.6" d="M35.312 140L417.688 140.201" stroke="white" stroke-opacity="0.08"/>
<path opacity="0.6" d="M35.312 170L417.688 170.201" stroke="white" stroke-opacity="0.08"/>
<path opacity="0.6" d="M35.312 200L417.688 200.201" stroke="white" stroke-opacity="0.08"/>
<line x1="354.627" y1="55" x2="354.627" y2="246" stroke="#1595C2" stroke-dasharray="2 2"/>
<path d="M35.3125 230L417.689 230.201" stroke="white" stroke-opacity="0.08"/>
<path d="M38.8628 244.703C38.8628 244.893 38.8263 245.072 38.7534 245.238C38.6831 245.405 38.5854 245.551 38.4604 245.676C38.3354 245.801 38.1896 245.9 38.0229 245.973C37.8563 246.043 37.6779 246.078 37.4878 246.078H37.2495C37.0594 246.078 36.8797 246.043 36.7104 245.973C36.5438 245.9 36.3979 245.801 36.2729 245.676C36.1479 245.551 36.049 245.405 35.9761 245.238C35.9058 245.072 35.8706 244.893 35.8706 244.703V244.238C35.8706 244.001 35.9253 243.785 36.0347 243.59C36.1466 243.392 36.2925 243.23 36.4722 243.105C36.2925 242.98 36.1466 242.819 36.0347 242.621C35.9253 242.423 35.8706 242.206 35.8706 241.969V241.695C35.8706 241.505 35.9058 241.327 35.9761 241.16C36.049 240.993 36.1479 240.848 36.2729 240.723C36.3979 240.598 36.5438 240.5 36.7104 240.43C36.8797 240.357 37.0594 240.32 37.2495 240.32H37.4878C37.6779 240.32 37.8563 240.357 38.0229 240.43C38.1896 240.5 38.3354 240.598 38.4604 240.723C38.5854 240.848 38.6831 240.993 38.7534 241.16C38.8263 241.327 38.8628 241.505 38.8628 241.695V241.969C38.8628 242.206 38.8081 242.423 38.6987 242.621C38.5894 242.819 38.4448 242.98 38.2651 243.105C38.4448 243.23 38.5894 243.392 38.6987 243.59C38.8081 243.785 38.8628 244.001 38.8628 244.238V244.703ZM38.3589 241.695C38.3589 241.57 38.3354 241.454 38.2886 241.348C38.2417 241.238 38.1779 241.143 38.0972 241.062C38.0164 240.982 37.9214 240.918 37.812 240.871C37.7052 240.824 37.5894 240.801 37.4644 240.801H37.2729C37.1479 240.801 37.0308 240.824 36.9214 240.871C36.8146 240.918 36.7196 240.982 36.6362 241.062C36.5555 241.143 36.4917 241.238 36.4448 241.348C36.3979 241.454 36.3745 241.57 36.3745 241.695V241.969C36.3745 242.094 36.3979 242.211 36.4448 242.32C36.4917 242.427 36.5555 242.521 36.6362 242.602C36.7196 242.682 36.8146 242.746 36.9214 242.793C37.0308 242.84 37.1479 242.863 37.2729 242.863H37.4644C37.5894 242.863 37.7052 242.84 37.812 242.793C37.9214 242.746 38.0164 242.682 38.0972 242.602C38.1779 242.521 38.2417 242.427 38.2886 242.32C38.3354 242.211 38.3589 242.094 38.3589 241.969V241.695ZM38.3589 244.238C38.3589 244.113 38.3354 243.997 38.2886 243.891C38.2417 243.781 38.1779 243.686 38.0972 243.605C38.0164 243.525 37.9214 243.461 37.812 243.414C37.7052 243.367 37.5894 243.344 37.4644 243.344H37.2729C37.1479 243.344 37.0308 243.367 36.9214 243.414C36.8146 243.461 36.7196 243.525 36.6362 243.605C36.5555 243.686 36.4917 243.781 36.4448 243.891C36.3979 243.997 36.3745 244.113 36.3745 244.238V244.703C36.3745 244.828 36.3979 244.945 36.4448 245.055C36.4917 245.161 36.5555 245.257 36.6362 245.34C36.7196 245.421 36.8146 245.484 36.9214 245.531C37.0308 245.578 37.1479 245.602 37.2729 245.602H37.4644C37.5894 245.602 37.7052 245.578 37.812 245.531C37.9214 245.484 38.0164 245.421 38.0972 245.34C38.1779 245.257 38.2417 245.161 38.2886 245.055C38.3354 244.945 38.3589 244.828 38.3589 244.703V244.238ZM39.9878 242.602V242H40.5894V242.602H39.9878ZM39.9878 246V245.398H40.5894V246H39.9878ZM44.1401 245.031V246H43.6362V245.031H41.3862V244.793L43.8745 240.398H44.1401V244.551H44.6206V245.031H44.1401ZM43.6362 241.777L42.0933 244.551H43.6362V241.777ZM48.6519 244.703C48.6519 244.893 48.6154 245.072 48.5425 245.238C48.4722 245.405 48.3745 245.551 48.2495 245.676C48.1245 245.801 47.9787 245.9 47.812 245.973C47.6453 246.043 47.467 246.078 47.2769 246.078H47.0386C46.8485 246.078 46.6688 246.043 46.4995 245.973C46.3328 245.9 46.187 245.801 46.062 245.676C45.937 245.551 45.8381 245.405 45.7651 245.238C45.6948 245.072 45.6597 244.893 45.6597 244.703V241.695C45.6597 241.505 45.6948 241.327 45.7651 241.16C45.8381 240.993 45.937 240.848 46.062 240.723C46.187 240.598 46.3328 240.5 46.4995 240.43C46.6688 240.357 46.8485 240.32 47.0386 240.32H47.2769C47.467 240.32 47.6453 240.357 47.812 240.43C47.9787 240.5 48.1245 240.598 48.2495 240.723C48.3745 240.848 48.4722 240.993 48.5425 241.16C48.6154 241.327 48.6519 241.505 48.6519 241.695V244.703ZM48.1479 241.695C48.1479 241.57 48.1245 241.454 48.0776 241.348C48.0308 241.238 47.967 241.143 47.8862 241.062C47.8055 240.982 47.7104 240.918 47.6011 240.871C47.4943 240.824 47.3784 240.801 47.2534 240.801H47.062C46.937 240.801 46.8198 240.824 46.7104 240.871C46.6037 240.918 46.5086 240.982 46.4253 241.062C46.3446 241.143 46.2808 241.238 46.2339 241.348C46.187 241.454 46.1636 241.57 46.1636 241.695V244.703C46.1636 244.828 46.187 244.945 46.2339 245.055C46.2808 245.161 46.3446 245.257 46.4253 245.34C46.5086 245.421 46.6037 245.484 46.7104 245.531C46.8198 245.578 46.937 245.602 47.062 245.602H47.2534C47.3784 245.602 47.4943 245.578 47.6011 245.531C47.7104 245.484 47.8055 245.421 47.8862 245.34C47.967 245.257 48.0308 245.161 48.0776 245.055C48.1245 244.945 48.1479 244.828 48.1479 244.703V241.695ZM53.8042 244.695H52.0308L51.6636 246H51.1401L52.7808 240.398H53.0464L54.6948 246H54.1753L53.8042 244.695ZM52.1675 244.215H53.6714L52.9331 241.633L52.9175 241.426L52.9019 241.633L52.1675 244.215ZM58.8628 246V242.16L58.8276 242.398L57.5269 246H57.2612L55.9487 242.398L55.9175 242.16V246H55.4136V240.398H55.6753L57.3745 244.992L57.3901 245.199L57.4058 244.992L59.1011 240.398H59.3667V246H58.8628Z" fill="#525252"/>
<path d="M242.779 246V245.52H244.115V240.879L242.779 241.441V240.961L244.115 240.398H244.619V245.52H245.955V246H242.779ZM248.119 240.801C247.994 240.801 247.876 240.824 247.767 240.871C247.66 240.918 247.567 240.982 247.486 241.062C247.405 241.143 247.341 241.238 247.294 241.348C247.248 241.454 247.224 241.57 247.224 241.695V241.922L246.72 241.84V241.695C246.72 241.505 246.755 241.327 246.826 241.16C246.899 240.993 246.998 240.848 247.123 240.723C247.248 240.598 247.393 240.5 247.56 240.43C247.727 240.357 247.905 240.32 248.095 240.32H248.333C248.524 240.32 248.702 240.354 248.869 240.422C249.038 240.49 249.185 240.587 249.31 240.715C249.435 240.842 249.533 240.996 249.603 241.176C249.676 241.353 249.712 241.553 249.712 241.777C249.712 241.999 249.679 242.221 249.611 242.445C249.546 242.669 249.458 242.889 249.349 243.105C249.242 243.322 249.119 243.531 248.978 243.734C248.84 243.938 248.698 244.129 248.552 244.309C248.211 244.728 247.824 245.132 247.392 245.52H249.751V246H246.599V245.602C247.086 245.201 247.521 244.785 247.904 244.355C248.068 244.171 248.228 243.974 248.384 243.766C248.541 243.557 248.68 243.344 248.802 243.125C248.925 242.904 249.022 242.68 249.095 242.453C249.171 242.224 249.208 241.999 249.208 241.777C249.208 241.613 249.184 241.47 249.134 241.348C249.085 241.225 249.018 241.124 248.935 241.043C248.852 240.962 248.755 240.902 248.646 240.863C248.539 240.822 248.427 240.801 248.31 240.801H248.119ZM250.791 242.602V242H251.392V242.602H250.791ZM250.791 246V245.398H251.392V246H250.791ZM254.943 245.031V246H254.439V245.031H252.189V244.793L254.677 240.398H254.943V244.551H255.423V245.031H254.943ZM254.439 241.777L252.896 244.551H254.439V241.777ZM259.455 244.703C259.455 244.893 259.418 245.072 259.345 245.238C259.275 245.405 259.177 245.551 259.052 245.676C258.927 245.801 258.781 245.9 258.615 245.973C258.448 246.043 258.27 246.078 258.08 246.078H257.841C257.651 246.078 257.472 246.043 257.302 245.973C257.136 245.9 256.99 245.801 256.865 245.676C256.74 245.551 256.641 245.405 256.568 245.238C256.498 245.072 256.462 244.893 256.462 244.703V241.695C256.462 241.505 256.498 241.327 256.568 241.16C256.641 240.993 256.74 240.848 256.865 240.723C256.99 240.598 257.136 240.5 257.302 240.43C257.472 240.357 257.651 240.32 257.841 240.32H258.08C258.27 240.32 258.448 240.357 258.615 240.43C258.781 240.5 258.927 240.598 259.052 240.723C259.177 240.848 259.275 240.993 259.345 241.16C259.418 241.327 259.455 241.505 259.455 241.695V244.703ZM258.951 241.695C258.951 241.57 258.927 241.454 258.88 241.348C258.833 241.238 258.77 241.143 258.689 241.062C258.608 240.982 258.513 240.918 258.404 240.871C258.297 240.824 258.181 240.801 258.056 240.801H257.865C257.74 240.801 257.623 240.824 257.513 240.871C257.406 240.918 257.311 240.982 257.228 241.062C257.147 241.143 257.083 241.238 257.037 241.348C256.99 241.454 256.966 241.57 256.966 241.695V244.703C256.966 244.828 256.99 244.945 257.037 245.055C257.083 245.161 257.147 245.257 257.228 245.34C257.311 245.421 257.406 245.484 257.513 245.531C257.623 245.578 257.74 245.602 257.865 245.602H258.056C258.181 245.602 258.297 245.578 258.404 245.531C258.513 245.484 258.608 245.421 258.689 245.34C258.77 245.257 258.833 245.161 258.88 245.055C258.927 244.945 258.951 244.828 258.951 244.703V241.695ZM265.658 242.473C265.658 242.663 265.621 242.841 265.548 243.008C265.478 243.174 265.38 243.32 265.255 243.445C265.13 243.57 264.983 243.669 264.814 243.742C264.647 243.812 264.469 243.848 264.279 243.848H263.009V246H262.505V240.398H264.279C264.469 240.398 264.647 240.435 264.814 240.508C264.983 240.578 265.13 240.676 265.255 240.801C265.38 240.926 265.478 241.073 265.548 241.242C265.621 241.409 265.658 241.587 265.658 241.777V242.473ZM265.154 241.777C265.154 241.652 265.13 241.536 265.083 241.43C265.037 241.32 264.972 241.225 264.888 241.145C264.807 241.061 264.712 240.996 264.603 240.949C264.496 240.902 264.38 240.879 264.255 240.879H263.009V243.367H264.255C264.38 243.367 264.496 243.344 264.603 243.297C264.712 243.25 264.807 243.186 264.888 243.105C264.972 243.025 265.037 242.931 265.083 242.824C265.13 242.715 265.154 242.598 265.154 242.473V241.777ZM270.072 246V242.16L270.037 242.398L268.736 246H268.47L267.158 242.398L267.126 242.16V246H266.623V240.398H266.884L268.583 244.992L268.599 245.199L268.615 244.992L270.31 240.398H270.576V246H270.072Z" fill="#525252"/>
<defs>
<radialGradient id="paint0_radial_316_75" cx="0" cy="0" r="1" gradientUnits="userSpaceOnUse" gradientTransform="translate(119.422 40.2879) scale(292.738 209.31)">
<stop stop-color="#1A1A1A"/>
<stop offset="0.5" stop-color="#151515"/>
<stop offset="1" stop-color="#101010"/>
</radialGradient>
<linearGradient id="paint1_linear_316_75" x1="125.292" y1="115.13" x2="77.43" y2="-12.6436" gradientUnits="userSpaceOnUse">
<stop stop-color="white" stop-opacity="0"/>
<stop offset="0.17" stop-color="white" stop-opacity="0.05"/>
<stop offset="0.33" stop-color="white" stop-opacity="0.1"/>
</linearGradient>
</defs>
</svg>
