<svg width="450" height="388" viewBox="0 0 450 388" fill="none" xmlns="http://www.w3.org/2000/svg">
<g clip-path="url(#clip0_143_523)">
<rect width="450" height="311.739" rx="10.6039" fill="url(#paint0_radial_143_523)"/>
<path d="M17.4679 39L23.3849 25.4483H25.3318L31.2487 39H28.9201L27.3741 35.4498H21.3044L19.7775 39H17.4679ZM24.3393 28.464L22.1633 33.4648H26.5152L24.3393 28.464ZM36.8364 39.1909C35.3986 39.1909 34.2024 38.7137 33.2481 37.7593C32.3065 36.7923 31.8357 35.6152 31.8357 34.2283C31.8357 32.8413 32.3065 31.6706 33.2481 30.7163C34.2024 29.7492 35.3986 29.2657 36.8364 29.2657C38.0707 29.2657 39.1205 29.6092 39.9858 30.2963C40.8638 30.9835 41.43 31.8678 41.6845 32.9494H39.4704C39.2796 32.415 38.9487 31.9887 38.4779 31.6706C38.0198 31.3398 37.4727 31.1743 36.8364 31.1743C35.9966 31.1743 35.3095 31.4607 34.775 32.0333C34.2406 32.6059 33.9734 33.3375 33.9734 34.2283C33.9734 35.119 34.2406 35.8507 34.775 36.4233C35.3095 36.9959 35.9966 37.2822 36.8364 37.2822C37.4727 37.2822 38.0198 37.1231 38.4779 36.805C38.9487 36.4742 39.2796 36.0415 39.4704 35.5071H41.6845C41.43 36.5887 40.8638 37.473 39.9858 38.1602C39.1205 38.8473 38.0707 39.1909 36.8364 39.1909ZM47.6993 39.0954C46.7322 39.0954 45.9433 38.8282 45.3325 38.2938C44.7345 37.7466 44.4354 36.9577 44.4354 35.927V31.327H42.4504V29.4565H44.4354V26.8034H46.535V29.4565H49.2644V31.327H46.535V35.5834C46.535 36.1688 46.6622 36.5887 46.9167 36.8432C47.1712 37.0849 47.5784 37.2058 48.1383 37.2058C48.5964 37.2058 48.9718 37.1422 49.2644 37.015V38.8855C48.8063 39.0254 48.2846 39.0954 47.6993 39.0954ZM52.3054 27.376C51.9236 27.376 51.5928 27.2424 51.3129 26.9752C51.0329 26.6953 50.8929 26.3581 50.8929 25.9636C50.8929 25.5819 51.0329 25.2574 51.3129 24.9902C51.5928 24.7102 51.9236 24.5703 52.3054 24.5703C52.6998 24.5703 53.0307 24.7102 53.2979 24.9902C53.5651 25.2574 53.6987 25.5819 53.6987 25.9636C53.6987 26.3581 53.5651 26.6953 53.2979 26.9752C53.0307 27.2424 52.6998 27.376 52.3054 27.376ZM51.2556 39V29.4565H53.3552V39H51.2556ZM59.154 39L54.8404 29.4565H57.169L60.0702 36.156L62.9905 29.4565H65.3382L61.0054 39H59.154ZM67.8508 27.376C67.4691 27.376 67.1382 27.2424 66.8583 26.9752C66.5783 26.6953 66.4384 26.3581 66.4384 25.9636C66.4384 25.5819 66.5783 25.2574 66.8583 24.9902C67.1382 24.7102 67.4691 24.5703 67.8508 24.5703C68.2453 24.5703 68.5761 24.7102 68.8433 24.9902C69.1105 25.2574 69.2441 25.5819 69.2441 25.9636C69.2441 26.3581 69.1105 26.6953 68.8433 26.9752C68.5761 27.2424 68.2453 27.376 67.8508 27.376ZM66.801 39V29.4565H68.9006V39H66.801ZM75.8637 39.0954C74.8967 39.0954 74.1077 38.8282 73.497 38.2938C72.8989 37.7466 72.5999 36.9577 72.5999 35.927V31.327H70.6148V29.4565H72.5999V26.8034H74.6994V29.4565H77.4289V31.327H74.6994V35.5834C74.6994 36.1688 74.8267 36.5887 75.0812 36.8432C75.3357 37.0849 75.7429 37.2058 76.3027 37.2058C76.7608 37.2058 77.1362 37.1422 77.4289 37.015V38.8855C76.9708 39.0254 76.4491 39.0954 75.8637 39.0954ZM82.4739 42.9892H80.1644L82.2067 38.4847L78.103 29.4565H80.4126L83.3329 36.2133L86.2723 29.4565H88.6009L82.4739 42.9892Z" fill="white"/>
<line x1="17.3916" y1="69.3531" x2="432.609" y2="69.3531" stroke="white" stroke-opacity="0.08" stroke-width="0.424155"/>
<path d="M432.415 32.5144C432.415 40.8606 425.639 47.637 417.293 47.637C408.947 47.637 402.171 40.8606 402.171 32.5144C402.171 24.1683 408.947 17.3918 417.293 17.3918C425.639 17.3918 432.415 24.1683 432.415 32.5144Z" fill="#E3E5E8" fill-opacity="0.92"/>
<path d="M424.669 31.5918V33.4363H409.918V31.5918H424.669Z" fill="#525865"/>
<path d="M416.372 25.1384H418.217V39.8899H416.372V25.1384Z" fill="#525865"/>
<path d="M26.5152 125.968V122.914C24.3774 122.685 22.6087 121.871 21.209 120.471C19.8093 119.046 19.084 117.175 19.0331 114.86H23.2322C23.4867 117.023 24.581 118.333 26.5152 118.791V110.699L25.2173 110.202C21.1454 108.65 19.1094 106.041 19.1094 102.377C19.1094 100.239 19.7838 98.5339 21.1326 97.2614C22.5069 95.9635 24.3011 95.2382 26.5152 95.0855V92.1461H28.5766V95.1618C30.5107 95.4163 32.1267 96.2053 33.4246 97.5286C34.7226 98.8265 35.3715 100.417 35.3715 102.3H31.1724C30.8924 100.723 30.0272 99.7173 28.5766 99.2846V106.843L29.7218 107.301C31.8086 108.116 33.3865 109.184 34.4553 110.508C35.5242 111.806 36.0586 113.46 36.0586 115.47C36.0586 117.761 35.3842 119.555 34.0354 120.853C32.6866 122.125 30.867 122.825 28.5766 122.952V125.968H26.5152ZM31.8595 115.585C31.8595 113.854 30.7652 112.506 28.5766 111.538V118.906C29.5436 118.779 30.3326 118.422 30.9433 117.837C31.5541 117.226 31.8595 116.476 31.8595 115.585ZM23.3086 102.339C23.3086 103.916 24.3774 105.151 26.5152 106.041V99.1319C25.5481 99.2592 24.7719 99.6155 24.1866 100.201C23.6012 100.786 23.3086 101.499 23.3086 102.339ZM40.3082 122.609L48.0193 112.913H47.5994C45.3853 112.913 43.413 112.086 41.6824 110.431C39.9773 108.752 39.1248 106.678 39.1248 104.209C39.1248 101.613 39.9901 99.4373 41.7206 97.6813C43.4766 95.9253 45.7161 95.0473 48.4392 95.0473C51.1623 95.0473 53.3891 95.9253 55.1197 97.6813C56.8757 99.4373 57.7537 101.601 57.7537 104.171C57.7537 105.469 57.4992 106.627 56.9902 107.645C56.5066 108.663 55.7304 109.859 54.6616 111.233L45.5762 122.609H40.3082ZM44.8127 107.836C45.7798 108.803 46.9886 109.286 48.4392 109.286C49.8898 109.286 51.0859 108.803 52.0276 107.836C52.9946 106.843 53.4782 105.621 53.4782 104.171C53.4782 102.771 52.9946 101.575 52.0276 100.583C51.0605 99.59 49.8644 99.0938 48.4392 99.0938C47.0141 99.0938 45.8179 99.59 44.8509 100.583C43.8838 101.575 43.4003 102.771 43.4003 104.171C43.4003 105.621 43.8711 106.843 44.8127 107.836ZM70.4829 122.991C67.7598 122.991 65.4439 122.176 63.5352 120.547C61.652 118.919 60.6849 116.768 60.634 114.096H64.8331C64.9349 115.547 65.5075 116.705 66.551 117.57C67.6198 118.435 68.9305 118.868 70.4829 118.868C71.8826 118.868 73.0278 118.499 73.9185 117.761C74.8347 117.023 75.3055 116.005 75.331 114.707C75.331 113.282 74.8601 112.213 73.9185 111.5C73.0023 110.762 71.7299 110.393 70.1011 110.393H67.9634V106.805H70.1011C71.4499 106.805 72.5188 106.449 73.3077 105.736C74.1221 105.023 74.542 104.095 74.5675 102.949C74.5675 101.83 74.1603 100.926 73.3459 100.239C72.5315 99.5264 71.5263 99.1701 70.3302 99.1701C68.905 99.1701 67.7216 99.59 66.78 100.43C65.8384 101.244 65.3676 102.364 65.3676 103.789H61.1303C61.1303 101.142 62.021 99.0301 63.8024 97.4523C65.6093 95.849 67.7852 95.0473 70.3302 95.0473C72.8496 95.0473 74.8856 95.7599 76.438 97.1851C78.0159 98.6102 78.8048 100.443 78.8048 102.682C78.8048 103.929 78.4867 105.087 77.8504 106.156C77.2142 107.199 76.4253 108.001 75.4836 108.561C76.7307 109.095 77.7232 109.922 78.4612 111.042C79.1992 112.162 79.5683 113.473 79.5683 114.974C79.5683 117.341 78.7157 119.275 77.0106 120.777C75.331 122.253 73.155 122.991 70.4829 122.991ZM100.411 120.089C98.5783 122.024 96.2242 122.991 93.3484 122.991C90.4727 122.991 88.1186 122.024 86.2863 120.089C84.4539 118.13 83.5377 115.623 83.5377 112.569V105.469C83.5377 102.415 84.4539 99.9209 86.2863 97.9867C88.1186 96.0271 90.4727 95.0473 93.3484 95.0473C96.2242 95.0473 98.5783 96.0271 100.411 97.9867C102.268 99.9209 103.197 102.415 103.197 105.469V112.569C103.197 115.623 102.268 118.13 100.411 120.089ZM93.3484 118.868C95.0535 118.868 96.4151 118.308 97.4331 117.188C98.4765 116.068 98.9982 114.529 98.9982 112.569V105.469C98.9982 103.509 98.4765 101.97 97.4331 100.85C96.4151 99.73 95.0535 99.1701 93.3484 99.1701C91.6688 99.1701 90.3073 99.73 89.2638 100.85C88.2459 101.97 87.7369 103.509 87.7369 105.469V112.569C87.7369 114.529 88.2459 116.068 89.2638 117.188C90.3073 118.308 91.6688 118.868 93.3484 118.868ZM112.672 121.655L108.588 128.22H105.992L108.626 122.609C108.092 122.38 107.646 121.998 107.29 121.464C106.934 120.904 106.756 120.28 106.756 119.593C106.756 118.677 107.074 117.901 107.71 117.265C108.346 116.603 109.122 116.272 110.038 116.272C110.955 116.272 111.731 116.603 112.367 117.265C113.003 117.901 113.321 118.677 113.321 119.593C113.321 120.331 113.105 121.018 112.672 121.655ZM117.476 122.609L125.187 112.913H124.767C122.553 112.913 120.581 112.086 118.85 110.431C117.145 108.752 116.293 106.678 116.293 104.209C116.293 101.613 117.158 99.4373 118.889 97.6813C120.645 95.9253 122.884 95.0473 125.607 95.0473C128.33 95.0473 130.557 95.9253 132.288 97.6813C134.044 99.4373 134.922 101.601 134.922 104.171C134.922 105.469 134.667 106.627 134.158 107.645C133.675 108.663 132.898 109.859 131.83 111.233L122.744 122.609H117.476ZM121.981 107.836C122.948 108.803 124.157 109.286 125.607 109.286C127.058 109.286 128.254 108.803 129.196 107.836C130.163 106.843 130.646 105.621 130.646 104.171C130.646 102.771 130.163 101.575 129.196 100.583C128.228 99.59 127.032 99.0938 125.607 99.0938C124.182 99.0938 122.986 99.59 122.019 100.583C121.052 101.575 120.568 102.771 120.568 104.171C120.568 105.621 121.039 106.843 121.981 107.836ZM152.786 120.395C151.055 122.125 148.828 122.991 146.105 122.991C143.382 122.991 141.156 122.125 139.425 120.395C137.694 118.639 136.829 116.463 136.829 113.867C136.829 112.62 137.071 111.475 137.554 110.431C138.063 109.388 138.84 108.192 139.883 106.843L148.93 95.5054H154.198L146.563 105.125H146.983C149.197 105.125 151.157 105.965 152.862 107.645C154.567 109.299 155.42 111.36 155.42 113.829C155.42 116.45 154.542 118.639 152.786 120.395ZM142.479 117.494C143.446 118.461 144.655 118.944 146.105 118.944C147.556 118.944 148.765 118.461 149.732 117.494C150.699 116.501 151.183 115.292 151.183 113.867C151.183 112.467 150.686 111.271 149.694 110.279C148.727 109.286 147.531 108.79 146.105 108.79C144.68 108.79 143.484 109.286 142.517 110.279C141.55 111.271 141.066 112.467 141.066 113.867C141.066 115.292 141.537 116.501 142.479 117.494ZM159.303 122.609L167.015 112.913H166.595C164.381 112.913 162.408 112.086 160.678 110.431C158.973 108.752 158.12 106.678 158.12 104.209C158.12 101.613 158.985 99.4373 160.716 97.6813C162.472 95.9253 164.711 95.0473 167.434 95.0473C170.158 95.0473 172.384 95.9253 174.115 97.6813C175.871 99.4373 176.749 101.601 176.749 104.171C176.749 105.469 176.494 106.627 175.985 107.645C175.502 108.663 174.726 109.859 173.657 111.233L164.571 122.609H159.303ZM163.808 107.836C164.775 108.803 165.984 109.286 167.434 109.286C168.885 109.286 170.081 108.803 171.023 107.836C171.99 106.843 172.473 105.621 172.473 104.171C172.473 102.771 171.99 101.575 171.023 100.583C170.056 99.59 168.86 99.0938 167.434 99.0938C166.009 99.0938 164.813 99.59 163.846 100.583C162.879 101.575 162.396 102.771 162.396 104.171C162.396 105.621 162.866 106.843 163.808 107.836ZM180.308 122.914C179.417 122.914 178.641 122.596 177.979 121.96C177.343 121.298 177.025 120.509 177.025 119.593C177.025 118.702 177.343 117.926 177.979 117.265C178.641 116.603 179.417 116.272 180.308 116.272C181.224 116.272 182 116.603 182.637 117.265C183.298 117.926 183.629 118.702 183.629 119.593C183.629 120.509 183.298 121.298 182.637 121.96C182 122.596 181.224 122.914 180.308 122.914ZM196.404 122.991C193.706 122.991 191.48 122.189 189.724 120.586C187.968 118.957 187.09 116.896 187.09 114.401C187.09 111.246 188.375 108.968 190.945 107.568C189.265 106.27 188.426 104.476 188.426 102.186C188.426 100.124 189.164 98.4193 190.64 97.0705C192.141 95.7217 194.063 95.0473 196.404 95.0473C198.771 95.0473 200.692 95.7217 202.168 97.0705C203.67 98.3939 204.421 100.099 204.421 102.186C204.421 104.476 203.581 106.27 201.901 107.568C204.471 108.968 205.757 111.246 205.757 114.401C205.757 116.921 204.879 118.982 203.123 120.586C201.392 122.189 199.153 122.991 196.404 122.991ZM196.404 119.059C197.956 119.059 199.191 118.601 200.107 117.684C201.023 116.768 201.481 115.649 201.481 114.325C201.481 112.976 201.023 111.857 200.107 110.966C199.191 110.05 197.969 109.592 196.442 109.592C194.89 109.592 193.655 110.05 192.739 110.966C191.823 111.857 191.365 112.976 191.365 114.325C191.365 115.649 191.823 116.768 192.739 117.684C193.681 118.601 194.902 119.059 196.404 119.059ZM196.404 106.041C197.575 106.041 198.516 105.698 199.229 105.011C199.967 104.298 200.336 103.446 200.336 102.453C200.336 101.41 199.98 100.557 199.267 99.8954C198.554 99.2083 197.6 98.8647 196.404 98.8647C195.259 98.8647 194.317 99.2083 193.579 99.8954C192.867 100.583 192.51 101.435 192.51 102.453C192.51 103.446 192.879 104.298 193.617 105.011C194.355 105.698 195.284 106.041 196.404 106.041ZM224.809 120.395C223.079 122.125 220.852 122.991 218.129 122.991C215.406 122.991 213.179 122.125 211.448 120.395C209.718 118.639 208.853 116.463 208.853 113.867C208.853 112.62 209.094 111.475 209.578 110.431C210.087 109.388 210.863 108.192 211.906 106.843L220.954 95.5054H226.222L218.587 105.125H219.007C221.221 105.125 223.181 105.965 224.886 107.645C226.591 109.299 227.443 111.36 227.443 113.829C227.443 116.45 226.565 118.639 224.809 120.395ZM214.502 117.494C215.469 118.461 216.678 118.944 218.129 118.944C219.579 118.944 220.788 118.461 221.755 117.494C222.722 116.501 223.206 115.292 223.206 113.867C223.206 112.467 222.71 111.271 221.717 110.279C220.75 109.286 219.554 108.79 218.129 108.79C216.704 108.79 215.508 109.286 214.54 110.279C213.573 111.271 213.09 112.467 213.09 113.867C213.09 115.292 213.561 116.501 214.502 117.494Z" fill="white"/>
<path d="M18.0194 151.303V149.657H20.7679V146.908H22.4306V149.657H25.1791V151.303H22.4306V154.051H20.7679V151.303H18.0194ZM29.8633 156.884V155.527C28.9132 155.425 28.1271 155.063 27.505 154.441C26.8829 153.808 26.5606 152.977 26.538 151.947H28.4042C28.5174 152.909 29.0037 153.491 29.8633 153.695V150.098L29.2865 149.877C27.4768 149.187 26.5719 148.028 26.5719 146.399C26.5719 145.449 26.8716 144.691 27.4711 144.126C28.0819 143.549 28.8793 143.227 29.8633 143.159V141.852H30.7795V143.193C31.6391 143.306 32.3574 143.656 32.9342 144.245C33.5111 144.821 33.7995 145.528 33.7995 146.365H31.9332C31.8088 145.664 31.4242 145.217 30.7795 145.025V148.384L31.2885 148.588C32.216 148.95 32.9173 149.425 33.3923 150.013C33.8674 150.59 34.1049 151.325 34.1049 152.219C34.1049 153.237 33.8051 154.034 33.2057 154.611C32.6062 155.176 31.7975 155.487 30.7795 155.544V156.884H29.8633ZM32.2386 152.27C32.2386 151.5 31.7522 150.901 30.7795 150.471V153.746C31.2093 153.689 31.56 153.531 31.8314 153.271C32.1029 152.999 32.2386 152.665 32.2386 152.27ZM28.4382 146.382C28.4382 147.084 28.9132 147.632 29.8633 148.028V144.957C29.4335 145.014 29.0885 145.172 28.8284 145.432C28.5683 145.692 28.4382 146.009 28.4382 146.382ZM37.283 155.391V145.195H34.8568L36.282 143.345H39.1493V155.391H37.283ZM44.0814 154.967L42.266 157.885H41.1123L42.283 155.391C42.0455 155.29 41.8475 155.12 41.6892 154.882C41.5308 154.634 41.4516 154.356 41.4516 154.051C41.4516 153.644 41.593 153.299 41.8758 153.016C42.1586 152.722 42.5035 152.575 42.9107 152.575C43.3179 152.575 43.6629 152.722 43.9457 153.016C44.2284 153.299 44.3698 153.644 44.3698 154.051C44.3698 154.379 44.2737 154.684 44.0814 154.967ZM50.233 155.561C49.0227 155.561 47.9934 155.199 47.1451 154.475C46.3081 153.751 45.8783 152.796 45.8557 151.608H47.722C47.7672 152.253 48.0217 152.767 48.4854 153.152C48.9605 153.536 49.543 153.729 50.233 153.729C50.8551 153.729 51.364 153.565 51.7599 153.237C52.1671 152.909 52.3764 152.456 52.3877 151.879C52.3877 151.246 52.1784 150.771 51.7599 150.454C51.3527 150.126 50.7872 149.962 50.0633 149.962H49.1132V148.367H50.0633C50.6628 148.367 51.1378 148.209 51.4885 147.892C51.8504 147.576 52.037 147.163 52.0483 146.654C52.0483 146.156 51.8674 145.755 51.5054 145.449C51.1435 145.132 50.6967 144.974 50.1651 144.974C49.5317 144.974 49.0057 145.161 48.5872 145.534C48.1687 145.896 47.9595 146.394 47.9595 147.027H46.0762C46.0762 145.851 46.4721 144.912 47.2639 144.211C48.0669 143.498 49.034 143.142 50.1651 143.142C51.2849 143.142 52.1897 143.458 52.8797 144.092C53.581 144.725 53.9316 145.54 53.9316 146.535C53.9316 147.089 53.7902 147.604 53.5074 148.079C53.2247 148.543 52.874 148.899 52.4555 149.148C53.0098 149.385 53.4509 149.753 53.7789 150.251C54.1069 150.748 54.2709 151.331 54.2709 151.998C54.2709 153.05 53.892 153.91 53.1342 154.577C52.3877 155.233 51.4206 155.561 50.233 155.561ZM59.9883 155.561C58.7893 155.561 57.7996 155.205 57.0192 154.492C56.2387 153.768 55.8485 152.852 55.8485 151.744C55.8485 150.341 56.4197 149.329 57.5621 148.707C56.8156 148.13 56.4423 147.332 56.4423 146.314C56.4423 145.398 56.7703 144.64 57.4264 144.041C58.0937 143.442 58.9477 143.142 59.9883 143.142C61.0402 143.142 61.8941 143.442 62.5501 144.041C63.2175 144.629 63.5512 145.387 63.5512 146.314C63.5512 147.332 63.1779 148.13 62.4314 148.707C63.5738 149.329 64.145 150.341 64.145 151.744C64.145 152.863 63.7547 153.78 62.9743 154.492C62.2052 155.205 61.2098 155.561 59.9883 155.561ZM59.9883 153.814C60.6782 153.814 61.2268 153.61 61.634 153.203C62.0412 152.796 62.2448 152.298 62.2448 151.71C62.2448 151.11 62.0412 150.613 61.634 150.217C61.2268 149.809 60.6839 149.606 60.0052 149.606C59.3153 149.606 58.7667 149.809 58.3595 150.217C57.9523 150.613 57.7487 151.11 57.7487 151.71C57.7487 152.298 57.9523 152.796 58.3595 153.203C58.778 153.61 59.3209 153.814 59.9883 153.814ZM59.9883 148.028C60.5085 148.028 60.927 147.875 61.2438 147.57C61.5718 147.253 61.7358 146.874 61.7358 146.433C61.7358 145.969 61.5774 145.591 61.2607 145.296C60.944 144.991 60.5199 144.838 59.9883 144.838C59.4793 144.838 59.0608 144.991 58.7328 145.296C58.4161 145.602 58.2577 145.981 58.2577 146.433C58.2577 146.874 58.4217 147.253 58.7497 147.57C59.0777 147.875 59.4906 148.028 59.9883 148.028ZM73.3593 154.272C72.545 155.131 71.4987 155.561 70.2206 155.561C68.9425 155.561 67.8962 155.131 67.0818 154.272C66.2675 153.401 65.8603 152.287 65.8603 150.929V147.774C65.8603 146.416 66.2675 145.308 67.0818 144.448C67.8962 143.577 68.9425 143.142 70.2206 143.142C71.4987 143.142 72.545 143.577 73.3593 144.448C74.185 145.308 74.5979 146.416 74.5979 147.774V150.929C74.5979 152.287 74.185 153.401 73.3593 154.272ZM70.2206 153.729C70.9784 153.729 71.5835 153.48 72.036 152.982C72.4997 152.484 72.7316 151.8 72.7316 150.929V147.774C72.7316 146.903 72.4997 146.218 72.036 145.721C71.5835 145.223 70.9784 144.974 70.2206 144.974C69.4741 144.974 68.8689 145.223 68.4052 145.721C67.9528 146.218 67.7266 146.903 67.7266 147.774V150.929C67.7266 151.8 67.9528 152.484 68.4052 152.982C68.8689 153.48 69.4741 153.729 70.2206 153.729ZM77.6045 155.527C77.2086 155.527 76.8636 155.386 76.5695 155.103C76.2867 154.809 76.1454 154.458 76.1454 154.051C76.1454 153.655 76.2867 153.31 76.5695 153.016C76.8636 152.722 77.2086 152.575 77.6045 152.575C78.0116 152.575 78.3566 152.722 78.6394 153.016C78.9335 153.31 79.0805 153.655 79.0805 154.051C79.0805 154.458 78.9335 154.809 78.6394 155.103C78.3566 155.386 78.0116 155.527 77.6045 155.527ZM84.7582 155.561C83.5593 155.561 82.5696 155.205 81.7891 154.492C81.0087 153.768 80.6185 152.852 80.6185 151.744C80.6185 150.341 81.1897 149.329 82.3321 148.707C81.5855 148.13 81.2123 147.332 81.2123 146.314C81.2123 145.398 81.5403 144.64 82.1963 144.041C82.8637 143.442 83.7176 143.142 84.7582 143.142C85.8101 143.142 86.6641 143.442 87.3201 144.041C87.9874 144.629 88.3211 145.387 88.3211 146.314C88.3211 147.332 87.9479 148.13 87.2013 148.707C88.3437 149.329 88.9149 150.341 88.9149 151.744C88.9149 152.863 88.5247 153.78 87.7443 154.492C86.9751 155.205 85.9798 155.561 84.7582 155.561ZM84.7582 153.814C85.4482 153.814 85.9967 153.61 86.4039 153.203C86.8111 152.796 87.0147 152.298 87.0147 151.71C87.0147 151.11 86.8111 150.613 86.4039 150.217C85.9967 149.809 85.4538 149.606 84.7752 149.606C84.0852 149.606 83.5366 149.809 83.1295 150.217C82.7223 150.613 82.5187 151.11 82.5187 151.71C82.5187 152.298 82.7223 152.796 83.1295 153.203C83.548 153.61 84.0909 153.814 84.7582 153.814ZM84.7582 148.028C85.2785 148.028 85.697 147.875 86.0137 147.57C86.3417 147.253 86.5057 146.874 86.5057 146.433C86.5057 145.969 86.3474 145.591 86.0307 145.296C85.714 144.991 85.2898 144.838 84.7582 144.838C84.2492 144.838 83.8307 144.991 83.5027 145.296C83.186 145.602 83.0277 145.981 83.0277 146.433C83.0277 146.874 83.1917 147.253 83.5197 147.57C83.8477 147.875 84.2605 148.028 84.7582 148.028ZM98.4347 153.559V155.391H90.4606V154.713C90.4606 154.283 90.5228 153.876 90.6472 153.491C90.7829 153.095 90.9243 152.767 91.0714 152.507C91.2184 152.247 91.4616 151.959 91.8009 151.642C92.1402 151.314 92.4004 151.082 92.5813 150.946C92.7623 150.799 93.079 150.562 93.5315 150.234C93.9952 149.906 94.2893 149.696 94.4137 149.606C95.1263 149.086 95.6409 148.628 95.9576 148.232C96.2743 147.836 96.4327 147.361 96.4327 146.806C96.4327 146.252 96.263 145.811 95.9237 145.483C95.5844 145.144 95.115 144.974 94.5155 144.974C93.8934 144.974 93.3788 145.161 92.9716 145.534C92.5644 145.896 92.3551 146.394 92.3438 147.027H90.4606C90.4606 145.885 90.8451 144.951 91.6143 144.228C92.3947 143.504 93.3674 143.142 94.5325 143.142C95.607 143.142 96.5062 143.458 97.2301 144.092C97.954 144.725 98.3159 145.613 98.3159 146.756C98.3159 147.66 98.1067 148.424 97.6882 149.046C97.281 149.657 96.6023 150.302 95.6522 150.98C95.5052 151.093 95.2337 151.286 94.8378 151.557C94.442 151.828 94.1479 152.038 93.9556 152.185C93.7746 152.332 93.5767 152.535 93.3618 152.796C93.1469 153.044 92.9998 153.299 92.9207 153.559H98.4347ZM104.522 155.391V142.667H106.388V155.391H104.522ZM112.374 155.561C111.22 155.561 110.248 155.131 109.456 154.272C108.675 153.412 108.285 152.371 108.285 151.15C108.285 149.928 108.675 148.888 109.456 148.028C110.248 147.168 111.22 146.739 112.374 146.739C112.951 146.739 113.482 146.869 113.969 147.129C114.455 147.378 114.828 147.683 115.089 148.045V146.908H116.955V155.391H115.089V154.255C114.828 154.617 114.455 154.928 113.969 155.188C113.482 155.437 112.951 155.561 112.374 155.561ZM110.898 153.084C111.373 153.604 111.978 153.864 112.713 153.864C113.449 153.864 114.054 153.604 114.529 153.084C115.004 152.564 115.241 151.919 115.241 151.15C115.241 150.381 115.004 149.736 114.529 149.216C114.054 148.695 113.449 148.435 112.713 148.435C111.978 148.435 111.373 148.695 110.898 149.216C110.423 149.736 110.185 150.381 110.185 151.15C110.185 151.919 110.423 152.564 110.898 153.084ZM122.469 155.561C121.463 155.561 120.614 155.312 119.924 154.815C119.246 154.317 118.884 153.649 118.839 152.812H120.773C120.908 153.649 121.491 154.068 122.52 154.068C122.939 154.068 123.272 153.994 123.521 153.847C123.77 153.689 123.894 153.463 123.894 153.169C123.894 152.875 123.798 152.643 123.606 152.473C123.414 152.304 123.091 152.162 122.639 152.049L121.248 151.676C119.8 151.291 119.076 150.437 119.076 149.114C119.076 148.401 119.364 147.83 119.941 147.4C120.518 146.959 121.282 146.739 122.232 146.739C123.148 146.739 123.9 146.97 124.488 147.434C125.076 147.898 125.404 148.514 125.472 149.284H123.606C123.425 148.582 122.961 148.232 122.215 148.232C121.842 148.232 121.542 148.311 121.316 148.469C121.089 148.616 120.976 148.825 120.976 149.097C120.976 149.583 121.355 149.923 122.113 150.115L123.538 150.488C125.042 150.873 125.795 151.727 125.795 153.05C125.795 153.853 125.484 154.475 124.862 154.916C124.251 155.346 123.453 155.561 122.469 155.561ZM131.201 155.476C130.341 155.476 129.64 155.239 129.097 154.764C128.565 154.277 128.299 153.576 128.299 152.66V148.571H126.535V146.908H128.299V144.55H130.166V146.908H132.592V148.571H130.166V152.354C130.166 152.875 130.279 153.248 130.505 153.474C130.731 153.689 131.093 153.797 131.591 153.797C131.998 153.797 132.332 153.74 132.592 153.627V155.29C132.185 155.414 131.721 155.476 131.201 155.476ZM145.284 155.391L143.418 149.911L141.569 155.391H139.804L136.954 146.908H138.922L140.754 152.762L142.705 146.908H144.13L146.048 152.762L147.914 146.908H149.899L147.049 155.391H145.284ZM154.978 155.561C153.711 155.561 152.671 155.148 151.856 154.322C151.042 153.485 150.635 152.428 150.635 151.15C150.635 149.872 151.036 148.82 151.839 147.994C152.642 147.157 153.694 146.739 154.995 146.739C156.307 146.739 157.365 147.197 158.168 148.113C158.971 149.018 159.327 150.183 159.237 151.608H152.484C152.507 152.264 152.755 152.812 153.231 153.254C153.706 153.695 154.311 153.915 155.046 153.915C156.087 153.915 156.799 153.519 157.184 152.728H159.135C158.875 153.553 158.377 154.232 157.642 154.764C156.907 155.295 156.019 155.561 154.978 155.561ZM154.944 148.299C154.333 148.299 153.807 148.475 153.366 148.825C152.936 149.165 152.659 149.651 152.535 150.285H157.235C157.099 149.629 156.822 149.136 156.403 148.808C155.985 148.469 155.498 148.299 154.944 148.299ZM164.903 155.561C163.636 155.561 162.595 155.148 161.781 154.322C160.966 153.485 160.559 152.428 160.559 151.15C160.559 149.872 160.961 148.82 161.764 147.994C162.567 147.157 163.619 146.739 164.92 146.739C166.232 146.739 167.289 147.197 168.092 148.113C168.895 149.018 169.252 150.183 169.161 151.608H162.409C162.431 152.264 162.68 152.812 163.155 153.254C163.63 153.695 164.235 153.915 164.97 153.915C166.011 153.915 166.724 153.519 167.108 152.728H169.059C168.799 153.553 168.302 154.232 167.566 154.764C166.831 155.295 165.943 155.561 164.903 155.561ZM164.869 148.299C164.258 148.299 163.732 148.475 163.291 148.825C162.861 149.165 162.584 149.651 162.459 150.285H167.159C167.023 149.629 166.746 149.136 166.328 148.808C165.909 148.469 165.423 148.299 164.869 148.299ZM176.999 155.391L172.944 151.303V155.391H171.078V142.667H172.944V150.132L176.184 146.908H178.543L174.759 150.692L179.391 155.391H176.999Z" fill="url(#paint1_linear_143_523)"/>
<path d="M450.318 133.478C408.321 141.514 385.489 145.468 343.492 153.503L296.534 166.127C286.658 168.782 272.056 176.042 263.948 182.328L253.565 190.379C245.457 196.665 230.746 203.458 220.735 205.537L191.735 211.561C181.724 213.641 165.362 216.364 155.22 217.639L123.8 221.589C113.658 222.864 97.1657 224.716 86.9944 225.721L54.0609 228.978C43.8896 229.983 27.5783 231.734 17.66 232.885L-0.311129 234.97" stroke="url(#paint2_linear_143_523)" stroke-width="0.82286"/>
<g opacity="0.1">
<path d="M108.336 224.878L-0.0126953 236.492V311.924H450.493V133.478L375.453 147.141L352.57 151.309L278.007 171.254L237.883 202.079L180.775 214.369L108.336 224.878Z" fill="url(#paint3_linear_143_523)"/>
</g>
</g>
<rect x="223.462" y="205.011" width="211.162" height="182.857" rx="10.9574" fill="url(#paint4_radial_143_523)" fill-opacity="0.8"/>
<path d="M240.328 239.351V226.904H244.816C245.962 226.904 246.873 227.237 247.551 227.903C248.241 228.558 248.586 229.405 248.586 230.445C248.586 231.322 248.34 232.046 247.849 232.619C247.37 233.18 246.675 233.56 245.763 233.759L250.391 239.351H247.867L243.308 233.881H242.379V239.351H240.328ZM242.379 232.093H244.571C245.179 232.093 245.658 231.953 246.008 231.672C246.359 231.38 246.534 230.971 246.534 230.445C246.534 229.919 246.359 229.516 246.008 229.235C245.658 228.943 245.179 228.797 244.571 228.797H242.379V232.093ZM256.965 237.581C258.181 237.581 259.209 237.148 260.051 236.283C260.892 235.418 261.313 234.366 261.313 233.127C261.313 231.889 260.892 230.837 260.051 229.972C259.209 229.107 258.181 228.674 256.965 228.674C255.738 228.674 254.703 229.107 253.862 229.972C253.02 230.837 252.6 231.889 252.6 233.127C252.6 234.366 253.02 235.418 253.862 236.283C254.703 237.148 255.738 237.581 256.965 237.581ZM261.523 237.686C260.273 238.936 258.753 239.562 256.965 239.562C255.177 239.562 253.657 238.942 252.407 237.703C251.156 236.453 250.531 234.927 250.531 233.127C250.531 231.328 251.156 229.808 252.407 228.569C253.657 227.319 255.177 226.693 256.965 226.693C258.753 226.693 260.273 227.319 261.523 228.569C262.774 229.82 263.399 231.339 263.399 233.127C263.399 234.916 262.774 236.435 261.523 237.686ZM265.65 239.351V226.904H267.701V239.351H265.65Z" fill="#C4C4C4"/>
<line x1="414.122" y1="258.264" x2="238.803" y2="258.264" stroke="white" stroke-opacity="0.08" stroke-width="0.438298"/>
<path d="M249.252 308.544C246.751 308.544 244.623 307.796 242.87 306.3C241.14 304.804 240.252 302.829 240.205 300.375H244.062C244.156 301.707 244.682 302.771 245.64 303.565C246.622 304.36 247.826 304.758 249.252 304.758C250.537 304.758 251.589 304.419 252.407 303.741C253.249 303.063 253.681 302.128 253.705 300.936C253.705 299.627 253.272 298.645 252.407 297.99C251.566 297.312 250.397 296.973 248.901 296.973H246.938V293.677H248.901C250.14 293.677 251.122 293.35 251.846 292.696C252.595 292.041 252.98 291.188 253.004 290.136C253.004 289.107 252.63 288.278 251.882 287.646C251.134 286.992 250.21 286.665 249.111 286.665C247.802 286.665 246.715 287.05 245.851 287.822C244.986 288.57 244.553 289.598 244.553 290.907H240.661C240.661 288.476 241.479 286.536 243.116 285.087C244.775 283.614 246.774 282.878 249.111 282.878C251.426 282.878 253.296 283.532 254.722 284.841C256.171 286.15 256.896 287.833 256.896 289.891C256.896 291.036 256.603 292.1 256.019 293.081C255.435 294.04 254.71 294.776 253.845 295.29C254.991 295.781 255.902 296.541 256.58 297.57C257.258 298.598 257.597 299.802 257.597 301.181C257.597 303.355 256.814 305.132 255.248 306.511C253.705 307.867 251.706 308.544 249.252 308.544ZM263.908 308.474C263.09 308.474 262.377 308.182 261.769 307.598C261.185 306.99 260.892 306.265 260.892 305.424C260.892 304.606 261.185 303.893 261.769 303.285C262.377 302.677 263.09 302.373 263.908 302.373C264.749 302.373 265.462 302.677 266.047 303.285C266.655 303.893 266.958 304.606 266.958 305.424C266.958 306.265 266.655 306.99 266.047 307.598C265.462 308.182 264.749 308.474 263.908 308.474ZM282.024 308.194V301.952H269.155V298.832L282.444 283.299H285.881V298.376H289.212V301.952H285.881V308.194H282.024ZM273.994 298.376H282.024V289.049L273.994 298.376ZM303.973 308.194V301.952H291.104V298.832L304.393 283.299H307.83V298.376H311.161V301.952H307.83V308.194H303.973ZM295.943 298.376H303.973V289.049L295.943 298.376ZM332.14 308.194H328.073L343.852 283.299H347.919L332.14 308.194ZM347.323 308.474C345.406 308.474 343.77 307.796 342.414 306.441C341.082 305.085 340.416 303.46 340.416 301.567C340.416 299.65 341.082 298.025 342.414 296.693C343.77 295.337 345.406 294.659 347.323 294.659C349.217 294.659 350.841 295.337 352.197 296.693C353.553 298.025 354.231 299.65 354.231 301.567C354.231 303.46 353.553 305.085 352.197 306.441C350.841 307.796 349.217 308.474 347.323 308.474ZM344.798 304.056C345.5 304.758 346.341 305.108 347.323 305.108C348.305 305.108 349.123 304.769 349.778 304.091C350.455 303.39 350.794 302.549 350.794 301.567C350.794 300.585 350.455 299.755 349.778 299.077C349.123 298.376 348.305 298.025 347.323 298.025C346.341 298.025 345.5 298.376 344.798 299.077C344.121 299.779 343.782 300.608 343.782 301.567C343.782 302.525 344.121 303.355 344.798 304.056ZM328.669 296.833C326.752 296.833 325.116 296.155 323.76 294.799C322.428 293.444 321.762 291.819 321.762 289.926C321.762 288.009 322.428 286.384 323.76 285.052C325.116 283.696 326.752 283.018 328.669 283.018C330.563 283.018 332.187 283.696 333.543 285.052C334.899 286.384 335.577 288.009 335.577 289.926C335.577 291.819 334.899 293.444 333.543 294.799C332.187 296.155 330.563 296.833 328.669 296.833ZM328.669 293.467C329.628 293.467 330.446 293.116 331.124 292.415C331.825 291.714 332.176 290.884 332.176 289.926C332.176 288.967 331.825 288.137 331.124 287.436C330.446 286.735 329.628 286.384 328.669 286.384C327.687 286.384 326.857 286.735 326.18 287.436C325.502 288.114 325.163 288.944 325.163 289.926C325.163 290.907 325.502 291.749 326.18 292.45C326.857 293.128 327.687 293.467 328.669 293.467Z" fill="white"/>
<path opacity="0.6" d="M246.136 357.14C245.47 357.14 244.926 356.956 244.505 356.588C244.093 356.211 243.887 355.668 243.887 354.958V351.789H242.52V350.5H243.887V348.673H245.334V350.5H247.214V351.789H245.334V354.721C245.334 355.124 245.421 355.414 245.597 355.589C245.772 355.755 246.053 355.839 246.438 355.839C246.754 355.839 247.013 355.795 247.214 355.707V356.996C246.899 357.092 246.539 357.14 246.136 357.14ZM253.913 356.22C253.256 356.877 252.441 357.206 251.468 357.206C250.495 357.206 249.675 356.877 249.009 356.22C248.351 355.554 248.023 354.743 248.023 353.787C248.023 352.832 248.351 352.026 249.009 351.368C249.675 350.702 250.495 350.369 251.468 350.369C252.441 350.369 253.256 350.702 253.913 351.368C254.58 352.026 254.913 352.832 254.913 353.787C254.913 354.743 254.58 355.554 253.913 356.22ZM251.468 355.865C252.037 355.865 252.506 355.668 252.875 355.273C253.251 354.87 253.44 354.375 253.44 353.787C253.44 353.2 253.251 352.709 252.875 352.315C252.506 351.912 252.037 351.71 251.468 351.71C250.889 351.71 250.411 351.912 250.034 352.315C249.666 352.709 249.482 353.2 249.482 353.787C249.482 354.375 249.666 354.87 250.034 355.273C250.411 355.668 250.889 355.865 251.468 355.865ZM262.157 357.206C261.263 357.206 260.509 356.873 259.896 356.207C259.291 355.541 258.989 354.734 258.989 353.787C258.989 352.841 259.291 352.034 259.896 351.368C260.509 350.702 261.263 350.369 262.157 350.369C262.605 350.369 263.017 350.47 263.393 350.671C263.77 350.864 264.06 351.101 264.261 351.381V347.213H265.708V357.075H264.261V356.194C264.06 356.474 263.77 356.715 263.393 356.917C263.017 357.11 262.605 357.206 262.157 357.206ZM261.014 355.286C261.382 355.69 261.851 355.891 262.42 355.891C262.99 355.891 263.459 355.69 263.827 355.286C264.196 354.883 264.38 354.384 264.38 353.787C264.38 353.191 264.196 352.692 263.827 352.288C263.459 351.885 262.99 351.684 262.42 351.684C261.851 351.684 261.382 351.885 261.014 352.288C260.645 352.692 260.461 353.191 260.461 353.787C260.461 354.384 260.645 354.883 261.014 355.286ZM270.363 357.206C269.469 357.206 268.715 356.873 268.101 356.207C267.496 355.541 267.194 354.734 267.194 353.787C267.194 352.841 267.496 352.034 268.101 351.368C268.715 350.702 269.469 350.369 270.363 350.369C270.81 350.369 271.222 350.47 271.599 350.671C271.976 350.864 272.265 351.101 272.467 351.381V350.5H273.913V357.075H272.467V356.194C272.265 356.474 271.976 356.715 271.599 356.917C271.222 357.11 270.81 357.206 270.363 357.206ZM269.219 355.286C269.587 355.69 270.056 355.891 270.626 355.891C271.195 355.891 271.664 355.69 272.033 355.286C272.401 354.883 272.585 354.384 272.585 353.787C272.585 353.191 272.401 352.692 272.033 352.288C271.664 351.885 271.195 351.684 270.626 351.684C270.056 351.684 269.587 351.885 269.219 352.288C268.851 352.692 268.667 353.191 268.667 353.787C268.667 354.384 268.851 354.883 269.219 355.286ZM278.726 357.14C278.06 357.14 277.516 356.956 277.095 356.588C276.683 356.211 276.477 355.668 276.477 354.958V351.789H275.11V350.5H276.477V348.673H277.924V350.5H279.804V351.789H277.924V354.721C277.924 355.124 278.011 355.414 278.187 355.589C278.362 355.755 278.642 355.839 279.028 355.839C279.344 355.839 279.602 355.795 279.804 355.707V356.996C279.488 357.092 279.129 357.14 278.726 357.14ZM283.992 357.206C283.01 357.206 282.203 356.886 281.572 356.246C280.941 355.598 280.626 354.778 280.626 353.787C280.626 352.797 280.937 351.982 281.559 351.342C282.182 350.693 282.997 350.369 284.005 350.369C285.022 350.369 285.841 350.724 286.464 351.434C287.086 352.135 287.362 353.038 287.292 354.142H282.059C282.076 354.651 282.269 355.076 282.637 355.418C283.006 355.76 283.475 355.931 284.044 355.931C284.851 355.931 285.403 355.624 285.701 355.01H287.213C287.012 355.65 286.626 356.176 286.056 356.588C285.486 357 284.798 357.206 283.992 357.206ZM283.965 351.578C283.492 351.578 283.084 351.714 282.743 351.986C282.409 352.249 282.195 352.626 282.098 353.117H285.741C285.635 352.608 285.421 352.227 285.096 351.973C284.772 351.71 284.395 351.578 283.965 351.578Z" fill="#C4C4C4"/>
<mask id="mask0_143_523" style="mask-type:luminance" maskUnits="userSpaceOnUse" x="376" y="345" width="43" height="22">
<path d="M376.668 345.635H418.558V366.581H376.668V345.635Z" fill="white"/>
</mask>
<g mask="url(#mask0_143_523)">
<g opacity="0.3">
<path d="M380.893 354.088V362.542C380.893 363.708 379.946 364.655 378.78 364.655C377.614 364.655 376.667 363.708 376.667 362.542V354.088C376.667 352.922 377.614 351.975 378.78 351.975C379.946 351.975 380.893 352.922 380.893 354.088Z" fill="#A7ABB4"/>
<path d="M388.291 347.748V362.544C388.291 363.71 387.345 364.657 386.178 364.657C385.012 364.657 384.065 363.71 384.065 362.544V347.748C384.065 346.582 385.012 345.635 386.178 345.635C387.345 345.635 388.291 346.582 388.291 347.748Z" fill="#A7ABB4"/>
<path d="M395.688 357.258V362.543C395.688 363.709 394.741 364.656 393.575 364.656C392.409 364.656 391.462 363.709 391.462 362.543V357.258C391.462 356.092 392.409 355.145 393.575 355.145C394.741 355.145 395.688 356.092 395.688 357.258Z" fill="#A7ABB4"/>
<path d="M403.085 351.975V362.542C403.085 363.709 402.139 364.655 400.972 364.655C399.806 364.655 398.859 363.709 398.859 362.542V351.975C398.859 350.808 399.806 349.862 400.972 349.862C402.139 349.862 403.085 350.808 403.085 351.975Z" fill="#A7ABB4"/>
<path d="M410.48 355.145V362.542C410.48 363.708 409.533 364.655 408.367 364.655C407.201 364.655 406.254 363.708 406.254 362.542V355.145C406.254 353.979 407.201 353.032 408.367 353.032C409.533 353.032 410.48 353.979 410.48 355.145Z" fill="#A7ABB4"/>
<path d="M417.876 348.805V362.544C417.876 363.71 416.93 364.657 415.763 364.657C414.597 364.657 413.65 363.71 413.65 362.544V348.805C413.65 347.639 414.597 346.692 415.763 346.692C416.93 346.692 417.876 347.639 417.876 348.805Z" fill="#A7ABB4"/>
</g>
</g>
<defs>
<radialGradient id="paint0_radial_143_523" cx="0" cy="0" r="1" gradientUnits="userSpaceOnUse" gradientTransform="translate(118.631 44.5366) scale(290.799 231.383)">
<stop stop-color="#1A1A1A"/>
<stop offset="0.5" stop-color="#151515"/>
<stop offset="1" stop-color="#101010"/>
</radialGradient>
<linearGradient id="paint1_linear_143_523" x1="17.3916" y1="149.692" x2="183.451" y2="149.692" gradientUnits="userSpaceOnUse">
<stop stop-color="#1595C2"/>
<stop offset="1" stop-color="#66BFDE"/>
</linearGradient>
<linearGradient id="paint2_linear_143_523" x1="-0.805952" y1="186.582" x2="450.814" y2="181.963" gradientUnits="userSpaceOnUse">
<stop stop-color="#1595C2"/>
<stop offset="1" stop-color="#66BFDE"/>
</linearGradient>
<linearGradient id="paint3_linear_143_523" x1="-0.012692" y1="222.701" x2="450.493" y2="222.701" gradientUnits="userSpaceOnUse">
<stop stop-color="#1595C2"/>
<stop offset="1" stop-color="#66BFDE"/>
</linearGradient>
<radialGradient id="paint4_radial_143_523" cx="0" cy="0" r="1" gradientUnits="userSpaceOnUse" gradientTransform="translate(279.129 231.135) scale(136.457 135.723)">
<stop stop-color="#1A1A1A"/>
<stop offset="0.5" stop-color="#151515"/>
<stop offset="1" stop-color="#101010"/>
</radialGradient>
<clipPath id="clip0_143_523">
<rect width="450" height="311.739" rx="10.6039" fill="white"/>
</clipPath>
</defs>
</svg>
