<svg width="533" height="335" viewBox="0 0 533 335" fill="none" xmlns="http://www.w3.org/2000/svg">
<mask id="mask0_55_363" style="mask-type:luminance" maskUnits="userSpaceOnUse" x="0" y="0" width="533" height="335">
<path d="M508 0H25C11.1929 0 0 11.1929 0 25V309.957C0 323.764 11.1929 334.957 25 334.957H508C521.807 334.957 533 323.764 533 309.956V25C533 11.1929 521.807 0 508 0Z" fill="white"/>
</mask>
<g mask="url(#mask0_55_363)">
<path d="M312.598 178.194V222.855C312.598 236.206 301.799 247.046 288.498 247.046H244.004C230.702 247.046 219.903 236.206 219.903 222.855V178.194C219.903 164.843 230.702 154.002 244.004 154.002H288.498C301.799 154.002 312.598 164.843 312.598 178.194Z" fill="url(#paint0_linear_55_363)" fill-opacity="0.5"/>
<path d="M312.598 178.194V222.855C312.598 236.206 301.799 247.046 288.498 247.046H244.004C230.702 247.046 219.903 236.206 219.903 222.855V178.194C219.903 164.843 230.702 154.002 244.004 154.002H288.498C301.799 154.002 312.598 164.843 312.598 178.194Z" stroke="url(#paint1_linear_55_363)"/>
<path d="M312.598 178.194V222.855C312.598 236.206 301.799 247.046 288.498 247.046H244.004C230.702 247.046 219.903 236.206 219.903 222.855V178.194C219.903 164.843 230.702 154.002 244.004 154.002H288.498C301.799 154.002 312.598 164.843 312.598 178.194Z" stroke="url(#paint2_linear_55_363)"/>
<path d="M193.7 179.002V222.084C193.7 234.963 183.282 245.42 170.451 245.42H127.53C114.699 245.42 104.281 234.963 104.281 222.084V179.002C104.281 166.122 114.699 155.666 127.53 155.666H170.451C183.282 155.666 193.7 166.122 193.7 179.002Z" fill="url(#paint3_linear_55_363)" fill-opacity="0.5"/>
<path d="M193.7 179.002V222.084C193.7 234.963 183.282 245.42 170.451 245.42H127.53C114.699 245.42 104.281 234.963 104.281 222.084V179.002C104.281 166.122 114.699 155.666 127.53 155.666H170.451C183.282 155.666 193.7 166.122 193.7 179.002Z" stroke="url(#paint4_linear_55_363)" stroke-width="0.964651"/>
<path d="M193.7 179.002V222.084C193.7 234.963 183.282 245.42 170.451 245.42H127.53C114.699 245.42 104.281 234.963 104.281 222.084V179.002C104.281 166.122 114.699 155.666 127.53 155.666H170.451C183.282 155.666 193.7 166.122 193.7 179.002Z" fill="url(#paint5_linear_55_363)" fill-opacity="0.5"/>
<path d="M193.7 179.002V222.084C193.7 234.963 183.282 245.42 170.451 245.42H127.53C114.699 245.42 104.281 234.963 104.281 222.084V179.002C104.281 166.122 114.699 155.666 127.53 155.666H170.451C183.282 155.666 193.7 166.122 193.7 179.002Z" stroke="url(#paint6_linear_55_363)" stroke-width="0.964651"/>
<path d="M197.103 61.9487V108.31C197.103 122.169 185.892 133.422 172.085 133.422H125.897C112.089 133.422 100.878 122.169 100.878 108.31V61.9487C100.878 48.0893 112.089 36.8364 125.897 36.8364H172.085C185.892 36.8364 197.103 48.0893 197.103 61.9487Z" fill="url(#paint7_linear_55_363)" fill-opacity="0.5"/>
<path d="M197.103 61.9487V108.31C197.103 122.169 185.892 133.422 172.085 133.422H125.897C112.089 133.422 100.878 122.169 100.878 108.31V61.9487C100.878 48.0893 112.089 36.8364 125.897 36.8364H172.085C185.892 36.8364 197.103 48.0893 197.103 61.9487Z" stroke="url(#paint8_linear_55_363)" stroke-width="1.03807"/>
<path d="M82.1608 177.323V223.684C82.1608 237.543 70.95 248.796 57.1423 248.796H10.9545C-2.8532 248.796 -14.064 237.543 -14.064 223.684V177.323C-14.064 163.463 -2.8532 152.211 10.9545 152.211H57.1423C70.95 152.211 82.1608 163.463 82.1608 177.323Z" fill="url(#paint9_linear_55_363)" fill-opacity="0.5"/>
<path d="M82.1608 177.323V223.684C82.1608 237.543 70.95 248.796 57.1423 248.796H10.9545C-2.8532 248.796 -14.064 237.543 -14.064 223.684V177.323C-14.064 163.463 -2.8532 152.211 10.9545 152.211H57.1423C70.95 152.211 82.1608 163.463 82.1608 177.323Z" stroke="url(#paint10_linear_55_363)" stroke-width="1.03807"/>
<path d="M78.4295 63.7893V106.556C78.4295 119.341 68.088 129.721 55.3509 129.721H12.7442C0.007067 129.721 -10.3345 119.341 -10.3345 106.556V63.7893C-10.3345 51.0044 0.007067 40.624 12.7442 40.624H55.3509C68.088 40.624 78.4295 51.0044 78.4295 63.7893Z" fill="url(#paint11_linear_55_363)" fill-opacity="0.5"/>
<path d="M78.4295 63.7893V106.556C78.4295 119.341 68.088 129.721 55.3509 129.721H12.7442C0.007067 129.721 -10.3345 119.341 -10.3345 106.556V63.7893C-10.3345 51.0044 0.007067 40.624 12.7442 40.624H55.3509C68.088 40.624 78.4295 51.0044 78.4295 63.7893Z" stroke="url(#paint12_linear_55_363)" stroke-width="0.957585"/>
<path d="M78.4295 294.099V336.866C78.4295 349.651 68.088 360.031 55.3509 360.031H12.7442C0.007067 360.031 -10.3345 349.651 -10.3345 336.866V294.099C-10.3345 281.314 0.007067 270.934 12.7442 270.934H55.3509C68.088 270.934 78.4295 281.314 78.4295 294.099Z" fill="url(#paint13_linear_55_363)" fill-opacity="0.5"/>
<path d="M78.4295 294.099V336.866C78.4295 349.651 68.088 360.031 55.3509 360.031H12.7442C0.007067 360.031 -10.3345 349.651 -10.3345 336.866V294.099C-10.3345 281.314 0.007067 270.934 12.7442 270.934H55.3509C68.088 270.934 78.4295 281.314 78.4295 294.099Z" stroke="url(#paint14_linear_55_363)" stroke-width="0.957585"/>
<path d="M542.37 63.7893V106.556C542.37 119.341 532.029 129.721 519.292 129.721H476.685C463.948 129.721 453.606 119.341 453.606 106.556V63.7893C453.606 51.0044 463.948 40.624 476.685 40.624H519.292C532.029 40.624 542.37 51.0044 542.37 63.7893Z" fill="url(#paint15_linear_55_363)" fill-opacity="0.5"/>
<path d="M542.37 63.7893V106.556C542.37 119.341 532.029 129.721 519.292 129.721H476.685C463.948 129.721 453.606 119.341 453.606 106.556V63.7893C453.606 51.0044 463.948 40.624 476.685 40.624H519.292C532.029 40.624 542.37 51.0044 542.37 63.7893Z" stroke="url(#paint16_linear_55_363)" stroke-width="0.957585"/>
<path d="M542.37 294.099V336.866C542.37 349.651 532.029 360.031 519.292 360.031H476.685C463.948 360.031 453.606 349.651 453.606 336.866V294.099C453.606 281.314 463.948 270.934 476.685 270.934H519.292C532.029 270.934 542.37 281.314 542.37 294.099Z" fill="url(#paint17_linear_55_363)" fill-opacity="0.5"/>
<path d="M542.37 294.099V336.866C542.37 349.651 532.029 360.031 519.292 360.031H476.685C463.948 360.031 453.606 349.651 453.606 336.866V294.099C453.606 281.314 463.948 270.934 476.685 270.934H519.292C532.029 270.934 542.37 281.314 542.37 294.099Z" stroke="url(#paint18_linear_55_363)" stroke-width="0.957585"/>
<path d="M197.103 292.258V338.619C197.103 352.479 185.892 363.732 172.085 363.732H125.897C112.089 363.732 100.878 352.479 100.878 338.619V292.258C100.878 278.399 112.089 267.146 125.897 267.146H172.085C185.892 267.146 197.103 278.399 197.103 292.258Z" fill="url(#paint19_linear_55_363)" fill-opacity="0.5"/>
<path d="M197.103 292.258V338.619C197.103 352.479 185.892 363.732 172.085 363.732H125.897C112.089 363.732 100.878 352.479 100.878 338.619V292.258C100.878 278.399 112.089 267.146 125.897 267.146H172.085C185.892 267.146 197.103 278.399 197.103 292.258Z" stroke="url(#paint20_linear_55_363)" stroke-width="1.03807"/>
<path d="M428.378 61.9487V108.31C428.378 122.169 417.167 133.422 403.36 133.422H357.172C343.364 133.422 332.153 122.169 332.153 108.31V61.9487C332.153 48.0893 343.364 36.8364 357.172 36.8364H403.36C417.167 36.8364 428.378 48.0893 428.378 61.9487Z" fill="url(#paint21_linear_55_363)" fill-opacity="0.5"/>
<path d="M428.378 61.9487V108.31C428.378 122.169 417.167 133.422 403.36 133.422H357.172C343.364 133.422 332.153 122.169 332.153 108.31V61.9487C332.153 48.0893 343.364 36.8364 357.172 36.8364H403.36C417.167 36.8364 428.378 48.0893 428.378 61.9487Z" stroke="url(#paint22_linear_55_363)" stroke-width="1.03807"/>
<path d="M546.102 177.323V223.684C546.102 237.543 534.891 248.796 521.083 248.796H474.895C461.088 248.796 449.877 237.543 449.877 223.684V177.323C449.877 163.463 461.088 152.21 474.895 152.21H521.083C534.891 152.21 546.102 163.463 546.102 177.323Z" fill="url(#paint23_linear_55_363)" fill-opacity="0.5"/>
<path d="M546.102 177.323V223.684C546.102 237.543 534.891 248.796 521.083 248.796H474.895C461.088 248.796 449.877 237.543 449.877 223.684V177.323C449.877 163.463 461.088 152.21 474.895 152.21H521.083C534.891 152.21 546.102 163.463 546.102 177.323Z" stroke="url(#paint24_linear_55_363)" stroke-width="1.03807"/>
<path d="M428.378 292.258V338.619C428.378 352.479 417.167 363.732 403.36 363.732H357.172C343.364 363.732 332.153 352.479 332.153 338.619V292.258C332.153 278.399 343.364 267.146 357.172 267.146H403.36C417.167 267.146 428.378 278.399 428.378 292.258Z" fill="url(#paint25_linear_55_363)" fill-opacity="0.5"/>
<path d="M428.378 292.258V338.619C428.378 352.479 417.167 363.732 403.36 363.732H357.172C343.364 363.732 332.153 352.479 332.153 338.619V292.258C332.153 278.399 343.364 267.146 357.172 267.146H403.36C417.167 267.146 428.378 278.399 428.378 292.258Z" stroke="url(#paint26_linear_55_363)" stroke-width="1.03807"/>
<path d="M427.293 179.002V222.084C427.293 234.963 416.875 245.42 404.044 245.42H361.122C348.291 245.42 337.874 234.963 337.874 222.084V179.002C337.874 166.122 348.291 155.666 361.122 155.666H404.044C416.875 155.666 427.293 166.122 427.293 179.002Z" fill="url(#paint27_linear_55_363)" fill-opacity="0.5"/>
<path d="M427.293 179.002V222.084C427.293 234.963 416.875 245.42 404.044 245.42H361.122C348.291 245.42 337.874 234.963 337.874 222.084V179.002C337.874 166.122 348.291 155.666 361.122 155.666H404.044C416.875 155.666 427.293 166.122 427.293 179.002Z" stroke="url(#paint28_linear_55_363)" stroke-width="0.964651"/>
<path d="M310.746 63.6279V106.71C310.746 119.589 300.328 130.046 287.497 130.046H244.576C231.745 130.046 221.327 119.589 221.327 106.71V63.6279C221.327 50.7487 231.745 40.2917 244.576 40.2917H287.497C300.328 40.2917 310.746 50.7487 310.746 63.6279Z" fill="url(#paint29_linear_55_363)" fill-opacity="0.5"/>
<path d="M310.746 63.6279V106.71C310.746 119.589 300.328 130.046 287.497 130.046H244.576C231.745 130.046 221.327 119.589 221.327 106.71V63.6279C221.327 50.7487 231.745 40.2917 244.576 40.2917H287.497C300.328 40.2917 310.746 50.7487 310.746 63.6279Z" stroke="url(#paint30_linear_55_363)" stroke-width="0.964651"/>
<path d="M310.746 296.236V339.318C310.746 352.198 300.328 362.655 287.497 362.655H244.576C231.745 362.655 221.327 352.198 221.327 339.318V296.236C221.327 283.357 231.745 272.9 244.576 272.9H287.497C300.328 272.9 310.746 283.357 310.746 296.236Z" fill="url(#paint31_linear_55_363)" fill-opacity="0.5"/>
<path d="M310.746 296.236V339.318C310.746 352.198 300.328 362.655 287.497 362.655H244.576C231.745 362.655 221.327 352.198 221.327 339.318V296.236C221.327 283.357 231.745 272.9 244.576 272.9H287.497C300.328 272.9 310.746 283.357 310.746 296.236Z" stroke="url(#paint32_linear_55_363)" stroke-width="0.964651"/>
<path d="M23.5944 -2.79102C37.0567 -2.79102 47.9701 8.12235 47.9701 21.5847V317.727C47.9701 331.189 37.0567 342.103 23.5944 342.103V342.103C10.1321 342.103 -0.78125 331.189 -0.78125 317.727V21.5847C-0.78125 8.12234 10.1321 -2.79102 23.5944 -2.79102V-2.79102Z" fill="url(#paint33_linear_55_363)"/>
<path d="M487.319 344.261C473.512 344.261 462.319 333.068 462.319 319.261V24.3674C462.319 10.5603 473.512 -0.632609 487.319 -0.632609H508.463C522.27 -0.632609 533.463 10.5603 533.463 24.3674V319.261C533.463 333.068 522.27 344.261 508.463 344.261H487.319Z" fill="url(#paint34_linear_55_363)"/>
<path d="M-2.95605 271.292C-2.95605 257.485 8.23683 246.292 22.0439 246.292H510.029C523.836 246.292 535.029 257.485 535.029 271.292V309.957C535.029 323.764 523.836 334.957 510.029 334.957H22.044C8.23684 334.957 -2.95605 323.764 -2.95605 309.957V271.292Z" fill="url(#paint35_linear_55_363)"/>
</g>
<path d="M147.914 56.1431L122.698 70.7815V100L147.914 114.638L173.131 100V70.7815L147.914 56.1431ZM147.914 56.1431L122.698 70.7815V100L147.914 114.638L173.131 100V70.7815L147.914 56.1431Z" fill="white"/>
<path d="M157.85 103.149H154.247L149.948 99.1835V97.1423L154.422 92.8849V86.1197L160.232 82.3289L166.856 87.3445L157.85 103.149ZM142.975 92.535L143.615 86.178L141.465 80.521H154.305L152.156 86.178L152.737 92.535H147.798H142.975ZM145.939 99.1835L141.639 103.208H137.979L128.915 87.4028L135.596 82.4455L141.465 86.178V92.9432L145.939 97.2006V99.1835ZM137.921 68.7986H157.792L160.174 78.9463H135.596L137.921 68.7986ZM147.914 56.1431L122.698 70.7815V100L147.914 114.638L173.131 100V70.7815L147.914 56.1431Z" fill="#03316C"/>
<g clip-path="url(#clip0_55_363)">
<path d="M355.104 78.5138L375.529 58.5812C377.136 57.0105 379.302 56.1414 381.551 56.1648C383.799 56.1883 385.946 57.1025 387.52 58.7063L408.479 80.0899C409.185 80.8095 409.742 81.661 410.118 82.5957C410.495 83.5304 410.683 84.5301 410.672 85.5374C410.661 86.5448 410.452 87.5402 410.055 88.4666C409.659 89.3931 409.084 90.2325 408.363 90.9369L386.276 112.478C384.844 113.875 382.916 114.648 380.914 114.628C378.913 114.607 377.001 113.794 375.599 112.367L354.984 91.3356C353.299 89.6181 352.366 87.3036 352.389 84.8998C352.411 82.496 353.388 80.1994 355.104 78.5138Z" fill="#0031D2"/>
<path d="M358.089 70.7402L383.62 57.9416C385.628 56.9388 387.951 56.7719 390.082 57.4776C392.212 58.1832 393.975 59.7037 394.984 61.7056L408.423 88.42C409.33 90.2377 409.479 92.3403 408.837 94.2674C408.195 96.1945 406.814 97.7889 404.997 98.7015L377.419 112.562C375.629 113.458 373.557 113.609 371.656 112.983C369.755 112.356 368.18 111.003 367.276 109.219L354.046 82.9177C353.51 81.853 353.19 80.6934 353.104 79.5053C353.017 78.3171 353.166 77.1235 353.542 75.9927C353.917 74.862 354.512 73.8161 355.292 72.9149C356.072 72.0136 357.023 71.2747 358.089 70.7402Z" fill="#BBFFFF"/>
<path d="M408.776 90.4689L409.04 90.1398C408.905 89.5508 408.701 88.9798 408.432 88.4386L399.775 71.227L387.065 58.2661C386.621 57.8724 386.137 57.5259 385.621 57.2324C384.921 57.3821 384.242 57.6205 383.602 57.9417L368.306 65.6134L365.623 68.2371L353.317 80.9198C353.476 81.6116 353.715 82.2822 354.032 82.9177L361.77 98.2658L375.548 112.316L375.608 112.372C375.608 112.372 376.012 112.775 376.318 113.016C376.699 112.889 377.07 112.735 377.428 112.552L395.369 103.55L408.776 90.4457V90.4689Z" fill="#006EE3"/>
<path d="M387.575 84.0858V93.8528H375.158V76.6644H387.575V80.7622L392.45 77.9531V75.6817C392.448 74.6617 392.042 73.6838 391.32 72.9625C390.597 72.2412 389.618 71.8355 388.597 71.8342H374.346C373.268 71.8342 372.235 72.2616 371.473 73.0222C370.712 73.7829 370.284 74.8146 370.284 75.8903V94.9932C370.286 96.0841 370.721 97.1297 371.494 97.9011C372.266 98.6726 373.313 99.107 374.406 99.1095H387.77C389.011 99.1095 390.202 98.6172 391.079 97.7409C391.957 96.8646 392.45 95.6761 392.45 94.4369V81.2767L387.575 84.0858Z" fill="white"/>
</g>
<g clip-path="url(#clip1_55_363)">
<path d="M170.141 209.566L167.118 219.825L161.183 218.196L170.141 209.566Z" fill="#E4761B" stroke="#E4761B" stroke-width="5.94955"/>
<path d="M161.183 218.196L166.907 210.324L170.141 209.566L161.183 218.196Z" fill="#E4761B" stroke="#E4761B" stroke-width="5.94955"/>
<path d="M165.693 201.831L170.141 209.566L166.907 210.324L165.693 201.831ZM165.693 201.831L168.555 199.841L170.141 209.566L165.693 201.831Z" fill="#F6851B"/>
<path d="M165.693 201.831L170.141 209.566M165.693 201.831L166.907 210.324L170.141 209.566M165.693 201.831L168.555 199.841L170.141 209.566" stroke="#F6851B" stroke-width="5.94955"/>
<path d="M162.05 195.986L170.277 192.603L169.868 194.456L162.05 195.986ZM169.608 196.682L162.05 195.986L169.868 194.456L169.608 196.682Z" fill="#763D16"/>
<path d="M162.05 195.986L170.277 192.603L169.868 194.456M162.05 195.986L169.868 194.456M162.05 195.986L169.608 196.682L169.868 194.456" stroke="#763D16" stroke-width="5.94955"/>
<path d="M169.608 196.682L168.555 199.841L162.05 195.986L169.608 196.682ZM171.256 193.387L169.868 194.456L170.277 192.603L171.256 193.387ZM169.608 196.682L169.868 194.456L170.971 195.377L169.608 196.682Z" fill="#763D16"/>
<path d="M169.608 196.682L168.555 199.841L162.05 195.986L169.608 196.682ZM169.608 196.682L169.868 194.456M169.608 196.682L170.971 195.377L169.868 194.456M169.868 194.456L171.256 193.387L170.277 192.603L169.868 194.456Z" stroke="#763D16" stroke-width="5.94955"/>
<path d="M154.802 215.697L156.859 216.356L161.183 218.196L154.802 215.697Z" fill="#E2761B" stroke="#E2761B" stroke-width="5.94955"/>
<path d="M168.555 199.841L169.608 196.682L170.512 197.379L168.555 199.841ZM168.555 199.841L160.019 197.018L162.05 195.986L168.555 199.841Z" fill="#763D16"/>
<path d="M168.555 199.841L169.608 196.682L170.512 197.379L168.555 199.841ZM168.555 199.841L160.019 197.018L162.05 195.986L168.555 199.841Z" stroke="#763D16" stroke-width="5.94955"/>
<path d="M164.082 186.299L162.05 195.986L160.019 197.018L164.082 186.299Z" fill="#763D16" stroke="#763D16" stroke-width="5.94955"/>
<path d="M170.277 192.603L162.05 195.986L164.082 186.299L170.277 192.603Z" fill="#763D16" stroke="#763D16" stroke-width="5.94955"/>
<path d="M164.082 186.299L172.668 185.304L170.277 192.603L164.082 186.299Z" fill="#763D16" stroke="#763D16" stroke-width="5.94955"/>
<path d="M168.555 199.841L165.693 201.831L160.019 197.018L168.555 199.841Z" fill="#F6851B" stroke="#F6851B" stroke-width="5.94955"/>
<path d="M172.296 178.327L172.668 185.304L164.082 186.298L172.296 178.327Z" fill="#763D16" stroke="#763D16" stroke-width="5.94955"/>
<path d="M172.296 178.327L155.137 190.85L154.914 182.356L172.296 178.327Z" fill="#E2761B" stroke="#E2761B" stroke-width="5.94955"/>
<path d="M142.153 181.337L154.914 182.356L155.137 190.85L142.153 181.337Z" fill="#F6851B" stroke="#F6851B" stroke-width="5.94955"/>
<path d="M160.018 197.018L155.137 190.85L164.082 186.299L160.018 197.018Z" fill="#763D16" stroke="#763D16" stroke-width="5.94955"/>
<path d="M160.018 197.018L165.692 201.831L157.726 202.714L160.018 197.018Z" fill="#E4761B" stroke="#E4761B" stroke-width="5.94955"/>
<path d="M157.726 202.714L155.137 190.85L160.018 197.018L157.726 202.714Z" fill="#E4761B" stroke="#E4761B" stroke-width="5.94955"/>
<path d="M164.082 186.298L155.137 190.85L172.296 178.327L164.082 186.298Z" fill="#763D16" stroke="#763D16" stroke-width="5.94955"/>
<path d="M142.265 217.997L146.316 222.238L140.803 217.201L142.265 217.997Z" fill="#C0AD9E" stroke="#C0AD9E" stroke-width="5.94955"/>
<path d="M161.183 218.196L163.103 210.872L166.907 210.324L161.183 218.196Z" fill="#CD6116" stroke="#CD6116" stroke-width="5.94955"/>
<path d="M125.836 197.59L132.849 190.191L126.741 196.707L125.836 197.59Z" fill="#E2761B" stroke="#E2761B" stroke-width="5.94955"/>
<path d="M166.907 210.324L163.103 210.872L165.693 201.831L166.907 210.324ZM155.137 190.85L148.31 190.626L142.153 181.337L155.137 190.85Z" fill="#F6851B" stroke="#F6851B" stroke-width="5.94955"/>
<path d="M165.693 201.831L163.103 210.872L162.893 206.457L165.693 201.831Z" fill="#E4751F" stroke="#E4751F" stroke-width="5.94955"/>
<path d="M157.726 202.714L165.692 201.831L162.892 206.457L157.726 202.714Z" fill="#CD6116" stroke="#CD6116" stroke-width="5.94955"/>
<path d="M148.311 190.626L155.137 190.85L157.726 202.714L148.311 190.626Z" fill="#F6851B" stroke="#F6851B" stroke-width="5.94955"/>
<path d="M148.31 190.626L129.887 173.514L142.153 181.337L148.31 190.626ZM142.14 220.596L126.133 225.571L122.937 213.321L142.14 220.596Z" fill="#E4761B" stroke="#E4761B" stroke-width="5.94955"/>
<path d="M128.215 200.649L134.261 195.886L139.328 197.068L128.215 200.649Z" fill="#763D16" stroke="#763D16" stroke-width="5.94955"/>
<path d="M139.328 197.068L134.261 195.886L136.974 184.645L139.328 197.068Z" fill="#763D16" stroke="#763D16" stroke-width="5.94955"/>
<path d="M126.741 196.707L134.261 195.886L128.215 200.649L126.741 196.707Z" fill="#763D16" stroke="#763D16" stroke-width="5.94955"/>
<path d="M162.892 206.457L159.77 204.878L157.726 202.714L162.892 206.457Z" fill="#CD6116" stroke="#CD6116" stroke-width="5.94955"/>
<path d="M126.741 196.707L126.208 193.884L134.261 195.887L126.741 196.707Z" fill="#763D16" stroke="#763D16" stroke-width="5.94955"/>
<path d="M159.126 208.434L159.771 204.878L162.893 206.457L159.126 208.434Z" fill="#233447" stroke="#233447" stroke-width="5.94955"/>
<path d="M163.103 210.872L159.126 208.434L162.893 206.457L163.103 210.872Z" fill="#F6851B" stroke="#F6851B" stroke-width="5.94955"/>
<path d="M134.261 195.886L126.208 193.884L125.551 191.509L134.261 195.886ZM136.974 184.645L134.261 195.886L125.551 191.509L136.974 184.645ZM136.974 184.645L148.31 190.626L139.328 197.068L136.974 184.645Z" fill="#763D16"/>
<path d="M134.261 195.886L126.208 193.884L125.551 191.509M134.261 195.886L125.551 191.509M134.261 195.886L136.974 184.645M125.551 191.509L136.974 184.645M136.974 184.645L148.31 190.626L139.328 197.068L136.974 184.645Z" stroke="#763D16" stroke-width="5.94955"/>
<path d="M139.328 197.068L148.31 190.626L152.312 202.9L139.328 197.068ZM152.312 202.9L139.898 202.639L139.328 197.068L152.312 202.9Z" fill="#E4761B"/>
<path d="M139.328 197.068L148.31 190.626L152.312 202.9M139.328 197.068L152.312 202.9M139.328 197.068L139.898 202.639L152.312 202.9" stroke="#E4761B" stroke-width="5.94955"/>
<path d="M128.215 200.649L139.328 197.068L139.898 202.639L128.215 200.649ZM157.726 202.714L152.312 202.9L148.31 190.626L157.726 202.714Z" fill="#F6851B" stroke="#F6851B" stroke-width="5.94955"/>
<path d="M159.77 204.878L159.126 208.434L157.726 202.714L159.77 204.878Z" fill="#CD6116" stroke="#CD6116" stroke-width="5.94955"/>
<path d="M129.888 173.514L148.311 190.626L136.974 184.645L129.888 173.514Z" fill="#763D16" stroke="#763D16" stroke-width="5.94955"/>
<path d="M122.937 213.321L138.473 212.675L142.14 220.596L122.937 213.321Z" fill="#E4761B" stroke="#E4761B" stroke-width="5.94955"/>
<path d="M142.14 220.596L138.473 212.675L146.105 212.302L142.14 220.596Z" fill="#CD6116" stroke="#CD6116" stroke-width="5.94955"/>
<path d="M159.126 208.434L163.103 210.872L165.296 216.057L159.126 208.434ZM139.898 202.639L122.937 213.321L128.215 200.649L139.898 202.639ZM138.473 212.675L122.937 213.321L139.898 202.639L138.473 212.675ZM157.726 202.714L158.742 206.42L153.836 206.706L157.726 202.714ZM153.836 206.706L152.312 202.9L157.726 202.714L153.836 206.706Z" fill="#F6851B"/>
<path d="M139.898 202.639L122.937 213.321M139.898 202.639L128.215 200.649L122.937 213.321M139.898 202.639L138.473 212.675L122.937 213.321M157.726 202.714L158.742 206.42L153.836 206.706M157.726 202.714L153.836 206.706M157.726 202.714L152.312 202.9L153.836 206.706M159.126 208.434L163.103 210.872L165.296 216.057L159.126 208.434Z" stroke="#F6851B" stroke-width="5.94955"/>
<path d="M146.316 222.238L142.141 220.596L156.661 223.046L146.316 222.238Z" fill="#C0AD9E" stroke="#C0AD9E" stroke-width="5.94955"/>
<path d="M128.215 200.649L125.836 197.59L126.741 196.707L128.215 200.649Z" fill="#763D16" stroke="#763D16" stroke-width="5.94955"/>
<path d="M158.309 221.231L156.661 223.046L142.141 220.596L158.309 221.231Z" fill="#D7C1B3" stroke="#D7C1B3" stroke-width="5.94955"/>
<path d="M159.089 216.779L142.141 220.596L146.105 212.302L159.089 216.779Z" fill="#E4761B" stroke="#E4761B" stroke-width="5.94955"/>
<path d="M142.141 220.596L159.089 216.779L158.309 221.231L142.141 220.596Z" fill="#D7C1B3" stroke="#D7C1B3" stroke-width="5.94955"/>
<path d="M125.551 191.509L124.994 181.946L136.974 184.645L125.551 191.509ZM126.741 196.707L125.093 195.028L126.208 193.884L126.741 196.707Z" fill="#763D16" stroke="#763D16" stroke-width="5.94955"/>
<path d="M149.537 205.363L152.312 202.9L151.916 208.919L149.537 205.363Z" fill="#CD6116" stroke="#CD6116" stroke-width="5.94955"/>
<path d="M152.312 202.9L149.537 205.363L145.498 207.464L152.312 202.9Z" fill="#CD6116" stroke="#CD6116" stroke-width="5.94955"/>
<path d="M165.296 216.057L164.541 215.498L159.126 208.434L165.296 216.057Z" fill="#F6851B" stroke="#F6851B" stroke-width="5.94955"/>
<path d="M145.498 207.464L139.898 202.639L152.312 202.9L145.498 207.464Z" fill="#CD6116" stroke="#CD6116" stroke-width="5.94955"/>
<path d="M151.916 208.919L152.312 202.9L153.836 206.706L151.916 208.919Z" fill="#E4751F" stroke="#E4751F" stroke-width="5.94955"/>
<path d="M124.548 192.454L125.551 191.509L126.208 193.884L124.548 192.454Z" fill="#763D16" stroke="#763D16" stroke-width="5.94955"/>
<path d="M151.916 208.919L145.498 207.464L149.537 205.363L151.916 208.919Z" fill="#233447" stroke="#233447" stroke-width="5.94955"/>
<path d="M136.974 184.645L124.994 181.946L129.887 173.514L136.974 184.645Z" fill="#763D16" stroke="#763D16" stroke-width="5.94955"/>
<path d="M156.661 223.046L157.342 224.912L146.316 222.238L156.661 223.046Z" fill="#C0AD9E" stroke="#C0AD9E" stroke-width="5.94955"/>
<path d="M146.105 212.302L145.498 207.464L151.916 208.919L146.105 212.302Z" fill="#F6851B" stroke="#F6851B" stroke-width="5.94955"/>
<path d="M139.898 202.639L145.498 207.464L146.105 212.302L139.898 202.639Z" fill="#E4751F" stroke="#E4751F" stroke-width="5.94955"/>
<path d="M153.836 206.706L158.742 206.42L164.54 215.498L153.836 206.706ZM139.898 202.639L146.105 212.302L138.473 212.675L139.898 202.639Z" fill="#F6851B" stroke="#F6851B" stroke-width="5.94955"/>
<path d="M153.836 206.706L159.931 216.02L151.916 208.919L153.836 206.706Z" fill="#E4751F" stroke="#E4751F" stroke-width="5.94955"/>
<path d="M151.916 208.919L159.931 216.02L159.089 216.779L151.916 208.919Z" fill="#F6851B" stroke="#F6851B" stroke-width="5.94955"/>
<path d="M159.089 216.779L146.105 212.302L151.916 208.919L159.089 216.779ZM164.54 215.498L159.931 216.02L153.836 206.706L164.54 215.498Z" fill="#F6851B" stroke="#F6851B" stroke-width="5.94955"/>
<path d="M165.754 219.875L163.772 223.867L157.342 224.912L165.754 219.875ZM157.342 224.912L156.661 223.046L158.308 221.231L157.342 224.912Z" fill="#C0AD9E"/>
<path d="M157.342 224.912L163.772 223.867L165.754 219.875L157.342 224.912ZM157.342 224.912L156.661 223.046L158.308 221.231L157.342 224.912Z" stroke="#C0AD9E" stroke-width="5.94955"/>
<path d="M158.309 221.231L159.523 220.746L157.342 224.912L158.309 221.231ZM157.342 224.912L159.523 220.746L165.755 219.875L157.342 224.912Z" fill="#C0AD9E"/>
<path d="M159.523 220.746L158.309 221.231L157.342 224.912M159.523 220.746L157.342 224.912M159.523 220.746L165.755 219.875L157.342 224.912" stroke="#C0AD9E" stroke-width="5.94955"/>
<path d="M164.54 215.498L166.064 216.43L161.431 216.99L164.54 215.498Z" fill="#161616" stroke="#161616" stroke-width="5.94955"/>
<path d="M161.431 216.99L159.932 216.02L164.54 215.498L161.431 216.99ZM160.898 217.724L166.535 217.04L165.755 219.875L160.898 217.724Z" fill="#161616" stroke="#161616" stroke-width="5.94955"/>
<path d="M165.755 219.875L159.523 220.746L160.898 217.724L165.755 219.875ZM159.523 220.746L158.309 221.231L159.089 216.779L159.523 220.746ZM159.089 216.779L159.932 216.02L161.431 216.99L159.089 216.779ZM166.064 216.43L166.535 217.04L160.898 217.724L166.064 216.43Z" fill="#161616"/>
<path d="M159.523 220.746L165.755 219.875L160.898 217.724M159.523 220.746L160.898 217.724M159.523 220.746L158.309 221.231L159.089 216.779M159.523 220.746L159.089 216.779M160.898 217.724L166.535 217.04L166.064 216.43L160.898 217.724ZM159.089 216.779L159.932 216.02L161.431 216.99L159.089 216.779Z" stroke="#161616" stroke-width="5.94955"/>
<path d="M160.898 217.724L161.431 216.99L166.065 216.43L160.898 217.724ZM159.089 216.779L160.898 217.724L159.523 220.746L159.089 216.779Z" fill="#161616"/>
<path d="M160.898 217.724L161.431 216.99L166.065 216.43L160.898 217.724ZM160.898 217.724L159.089 216.779L159.523 220.746L160.898 217.724Z" stroke="#161616" stroke-width="5.94955"/>
<path d="M161.431 216.99L160.898 217.724L159.089 216.779L161.431 216.99Z" fill="#161616" stroke="#161616" stroke-width="5.94955"/>
</g>
<path d="M289.563 175.361C290.65 175.361 291.531 176.244 291.531 177.335V223.011C291.531 224.102 290.65 224.986 289.563 224.986H243.437C242.35 224.986 241.47 224.102 241.47 223.011V177.361C241.47 176.27 242.35 175.387 243.437 175.387H289.563V175.361ZM266.5 189.157L252.574 211.215H280.4L266.5 189.157Z" fill="white"/>
<path fill-rule="evenodd" clip-rule="evenodd" d="M381.345 175.361C395.171 175.361 406.376 186.608 406.376 200.485C406.376 214.362 395.171 225.609 381.345 225.609C367.52 225.609 356.315 214.362 356.315 200.485C356.315 186.608 367.52 175.361 381.345 175.361Z" fill="url(#paint36_radial_55_363)"/>
<path d="M372.223 194.763C377.258 189.827 385.432 189.827 390.468 194.763L391.074 195.362C391.328 195.607 391.328 196.01 391.074 196.255L389.001 198.287C388.874 198.414 388.669 198.414 388.542 198.287L387.711 197.472C384.191 194.027 378.5 194.027 374.98 197.472L374.091 198.346C373.963 198.473 373.758 198.473 373.631 198.346L371.558 196.314C371.304 196.069 371.304 195.666 371.558 195.421L372.223 194.763ZM394.76 198.964L396.608 200.77C396.862 201.015 396.862 201.417 396.608 201.663L388.287 209.818C388.033 210.064 387.623 210.064 387.378 209.818L381.473 204.028C381.414 203.969 381.306 203.969 381.248 204.028L375.342 209.818C375.088 210.064 374.677 210.064 374.433 209.818L366.083 201.663C365.829 201.417 365.829 201.015 366.083 200.77L367.931 198.964C368.185 198.719 368.596 198.719 368.84 198.964L374.746 204.754C374.804 204.813 374.912 204.813 374.97 204.754L380.876 198.964C381.13 198.719 381.541 198.719 381.785 198.964L387.691 204.754C387.75 204.813 387.857 204.813 387.916 204.754L393.822 198.964C394.095 198.719 394.506 198.719 394.76 198.964Z" fill="white"/>
<defs>
<linearGradient id="paint0_linear_55_363" x1="242.945" y1="196.582" x2="303.426" y2="243.283" gradientUnits="userSpaceOnUse">
<stop offset="0.16" stop-color="#1A1A1A"/>
<stop offset="0.58" stop-color="#151515"/>
<stop offset="1" stop-color="#101010"/>
</linearGradient>
<linearGradient id="paint1_linear_55_363" x1="205.643" y1="174.345" x2="247.467" y2="214.614" gradientUnits="userSpaceOnUse">
<stop stop-color="white" stop-opacity="0.15"/>
<stop offset="0.5" stop-color="#808080" stop-opacity="0.075"/>
<stop offset="1" stop-opacity="0"/>
</linearGradient>
<linearGradient id="paint2_linear_55_363" x1="235.158" y1="208.881" x2="230.16" y2="187.821" gradientUnits="userSpaceOnUse">
<stop offset="0.01" stop-opacity="0"/>
<stop offset="0.23" stop-color="#534A7E" stop-opacity="0.5"/>
<stop offset="0.46" stop-color="#A594FD"/>
<stop offset="0.73" stop-color="#534A7E" stop-opacity="0.5"/>
<stop offset="1" stop-opacity="0"/>
</linearGradient>
<linearGradient id="paint3_linear_55_363" x1="132.56" y1="191.573" x2="184.876" y2="241.805" gradientUnits="userSpaceOnUse">
<stop offset="0.16" stop-color="#1A1A1A"/>
<stop offset="0.58" stop-color="#151515"/>
<stop offset="1" stop-color="#101010"/>
</linearGradient>
<linearGradient id="paint4_linear_55_363" x1="95.9226" y1="169.085" x2="130.889" y2="214.159" gradientUnits="userSpaceOnUse">
<stop stop-color="white" stop-opacity="0.15"/>
<stop offset="0.5" stop-color="#808080" stop-opacity="0.075"/>
<stop offset="1" stop-opacity="0"/>
</linearGradient>
<linearGradient id="paint5_linear_55_363" x1="132.56" y1="191.573" x2="184.876" y2="241.805" gradientUnits="userSpaceOnUse">
<stop offset="0.16" stop-color="#1A1A1A"/>
<stop offset="0.58" stop-color="#151515"/>
<stop offset="1" stop-color="#101010"/>
</linearGradient>
<linearGradient id="paint6_linear_55_363" x1="95.9226" y1="169.085" x2="130.889" y2="214.159" gradientUnits="userSpaceOnUse">
<stop stop-color="white" stop-opacity="0.15"/>
<stop offset="0.5" stop-color="#808080" stop-opacity="0.075"/>
<stop offset="1" stop-opacity="0"/>
</linearGradient>
<linearGradient id="paint7_linear_55_363" x1="112.01" y1="95.8174" x2="187.5" y2="129.532" gradientUnits="userSpaceOnUse">
<stop offset="0.16" stop-color="#1A1A1A"/>
<stop offset="0.58" stop-color="#151515"/>
<stop offset="1" stop-color="#101010"/>
</linearGradient>
<linearGradient id="paint8_linear_55_363" x1="86.625" y1="70.6407" x2="129.438" y2="99.7692" gradientUnits="userSpaceOnUse">
<stop stop-color="white" stop-opacity="0.15"/>
<stop offset="0.5" stop-color="#808080" stop-opacity="0.075"/>
<stop offset="1" stop-opacity="0"/>
</linearGradient>
<linearGradient id="paint9_linear_55_363" x1="-2.93258" y1="211.191" x2="72.5575" y2="244.906" gradientUnits="userSpaceOnUse">
<stop offset="0.16" stop-color="#1A1A1A"/>
<stop offset="0.58" stop-color="#151515"/>
<stop offset="1" stop-color="#101010"/>
</linearGradient>
<linearGradient id="paint10_linear_55_363" x1="-28.3174" y1="186.015" x2="14.4952" y2="215.143" gradientUnits="userSpaceOnUse">
<stop stop-color="white" stop-opacity="0.15"/>
<stop offset="0.5" stop-color="#808080" stop-opacity="0.075"/>
<stop offset="1" stop-opacity="0"/>
</linearGradient>
<linearGradient id="paint11_linear_55_363" x1="35.2293" y1="85.5597" x2="69.6339" y2="126.2" gradientUnits="userSpaceOnUse">
<stop offset="0.16" stop-color="#1A1A1A"/>
<stop offset="0.58" stop-color="#151515"/>
<stop offset="1" stop-color="#101010"/>
</linearGradient>
<linearGradient id="paint12_linear_55_363" x1="-1.33358" y1="56.5113" x2="16.0276" y2="98.7695" gradientUnits="userSpaceOnUse">
<stop stop-color="white" stop-opacity="0.15"/>
<stop offset="0.5" stop-color="#808080" stop-opacity="0.075"/>
<stop offset="1" stop-opacity="0"/>
</linearGradient>
<linearGradient id="paint13_linear_55_363" x1="35.2293" y1="315.87" x2="69.6339" y2="356.51" gradientUnits="userSpaceOnUse">
<stop offset="0.16" stop-color="#1A1A1A"/>
<stop offset="0.58" stop-color="#151515"/>
<stop offset="1" stop-color="#101010"/>
</linearGradient>
<linearGradient id="paint14_linear_55_363" x1="-1.33358" y1="286.821" x2="16.0276" y2="329.079" gradientUnits="userSpaceOnUse">
<stop stop-color="white" stop-opacity="0.15"/>
<stop offset="0.5" stop-color="#808080" stop-opacity="0.075"/>
<stop offset="1" stop-opacity="0"/>
</linearGradient>
<linearGradient id="paint15_linear_55_363" x1="499.17" y1="85.5597" x2="533.575" y2="126.2" gradientUnits="userSpaceOnUse">
<stop offset="0.16" stop-color="#1A1A1A"/>
<stop offset="0.58" stop-color="#151515"/>
<stop offset="1" stop-color="#101010"/>
</linearGradient>
<linearGradient id="paint16_linear_55_363" x1="462.607" y1="56.5113" x2="479.968" y2="98.7695" gradientUnits="userSpaceOnUse">
<stop stop-color="white" stop-opacity="0.15"/>
<stop offset="0.5" stop-color="#808080" stop-opacity="0.075"/>
<stop offset="1" stop-opacity="0"/>
</linearGradient>
<linearGradient id="paint17_linear_55_363" x1="499.17" y1="315.87" x2="533.575" y2="356.51" gradientUnits="userSpaceOnUse">
<stop offset="0.16" stop-color="#1A1A1A"/>
<stop offset="0.58" stop-color="#151515"/>
<stop offset="1" stop-color="#101010"/>
</linearGradient>
<linearGradient id="paint18_linear_55_363" x1="462.607" y1="286.821" x2="479.968" y2="329.079" gradientUnits="userSpaceOnUse">
<stop stop-color="white" stop-opacity="0.15"/>
<stop offset="0.5" stop-color="#808080" stop-opacity="0.075"/>
<stop offset="1" stop-opacity="0"/>
</linearGradient>
<linearGradient id="paint19_linear_55_363" x1="112.01" y1="326.127" x2="187.5" y2="359.842" gradientUnits="userSpaceOnUse">
<stop offset="0.16" stop-color="#1A1A1A"/>
<stop offset="0.58" stop-color="#151515"/>
<stop offset="1" stop-color="#101010"/>
</linearGradient>
<linearGradient id="paint20_linear_55_363" x1="86.625" y1="300.95" x2="129.438" y2="330.079" gradientUnits="userSpaceOnUse">
<stop stop-color="white" stop-opacity="0.15"/>
<stop offset="0.5" stop-color="#808080" stop-opacity="0.075"/>
<stop offset="1" stop-opacity="0"/>
</linearGradient>
<linearGradient id="paint21_linear_55_363" x1="343.285" y1="95.8174" x2="418.775" y2="129.532" gradientUnits="userSpaceOnUse">
<stop offset="0.16" stop-color="#1A1A1A"/>
<stop offset="0.58" stop-color="#151515"/>
<stop offset="1" stop-color="#101010"/>
</linearGradient>
<linearGradient id="paint22_linear_55_363" x1="317.9" y1="70.6407" x2="360.712" y2="99.7692" gradientUnits="userSpaceOnUse">
<stop stop-color="white" stop-opacity="0.15"/>
<stop offset="0.5" stop-color="#808080" stop-opacity="0.075"/>
<stop offset="1" stop-opacity="0"/>
</linearGradient>
<linearGradient id="paint23_linear_55_363" x1="461.008" y1="211.191" x2="536.498" y2="244.906" gradientUnits="userSpaceOnUse">
<stop offset="0.16" stop-color="#1A1A1A"/>
<stop offset="0.58" stop-color="#151515"/>
<stop offset="1" stop-color="#101010"/>
</linearGradient>
<linearGradient id="paint24_linear_55_363" x1="435.624" y1="186.015" x2="478.436" y2="215.143" gradientUnits="userSpaceOnUse">
<stop stop-color="white" stop-opacity="0.15"/>
<stop offset="0.5" stop-color="#808080" stop-opacity="0.075"/>
<stop offset="1" stop-opacity="0"/>
</linearGradient>
<linearGradient id="paint25_linear_55_363" x1="343.285" y1="326.127" x2="418.775" y2="359.842" gradientUnits="userSpaceOnUse">
<stop offset="0.16" stop-color="#1A1A1A"/>
<stop offset="0.58" stop-color="#151515"/>
<stop offset="1" stop-color="#101010"/>
</linearGradient>
<linearGradient id="paint26_linear_55_363" x1="317.9" y1="300.95" x2="360.712" y2="330.079" gradientUnits="userSpaceOnUse">
<stop stop-color="white" stop-opacity="0.15"/>
<stop offset="0.5" stop-color="#808080" stop-opacity="0.075"/>
<stop offset="1" stop-opacity="0"/>
</linearGradient>
<linearGradient id="paint27_linear_55_363" x1="366.153" y1="191.573" x2="418.469" y2="241.805" gradientUnits="userSpaceOnUse">
<stop offset="0.16" stop-color="#1A1A1A"/>
<stop offset="0.58" stop-color="#151515"/>
<stop offset="1" stop-color="#101010"/>
</linearGradient>
<linearGradient id="paint28_linear_55_363" x1="329.515" y1="169.085" x2="364.482" y2="214.159" gradientUnits="userSpaceOnUse">
<stop stop-color="white" stop-opacity="0.15"/>
<stop offset="0.5" stop-color="#808080" stop-opacity="0.075"/>
<stop offset="1" stop-opacity="0"/>
</linearGradient>
<linearGradient id="paint29_linear_55_363" x1="249.606" y1="76.1993" x2="301.922" y2="126.432" gradientUnits="userSpaceOnUse">
<stop offset="0.16" stop-color="#1A1A1A"/>
<stop offset="0.58" stop-color="#151515"/>
<stop offset="1" stop-color="#101010"/>
</linearGradient>
<linearGradient id="paint30_linear_55_363" x1="212.969" y1="53.7116" x2="247.935" y2="98.7855" gradientUnits="userSpaceOnUse">
<stop stop-color="white" stop-opacity="0.15"/>
<stop offset="0.5" stop-color="#808080" stop-opacity="0.075"/>
<stop offset="1" stop-opacity="0"/>
</linearGradient>
<linearGradient id="paint31_linear_55_363" x1="249.606" y1="308.808" x2="301.922" y2="359.04" gradientUnits="userSpaceOnUse">
<stop offset="0.16" stop-color="#1A1A1A"/>
<stop offset="0.58" stop-color="#151515"/>
<stop offset="1" stop-color="#101010"/>
</linearGradient>
<linearGradient id="paint32_linear_55_363" x1="212.969" y1="286.32" x2="247.935" y2="331.394" gradientUnits="userSpaceOnUse">
<stop stop-color="white" stop-opacity="0.15"/>
<stop offset="0.5" stop-color="#808080" stop-opacity="0.075"/>
<stop offset="1" stop-opacity="0"/>
</linearGradient>
<linearGradient id="paint33_linear_55_363" x1="5.86863" y1="169.656" x2="48.3373" y2="169.656" gradientUnits="userSpaceOnUse">
<stop stop-color="#101010"/>
<stop offset="0.5" stop-color="#101010" stop-opacity="0.5"/>
<stop offset="1" stop-color="#101010" stop-opacity="0"/>
</linearGradient>
<linearGradient id="paint34_linear_55_363" x1="523.759" y1="171.814" x2="461.784" y2="171.814" gradientUnits="userSpaceOnUse">
<stop stop-color="#101010"/>
<stop offset="0.5" stop-color="#101010" stop-opacity="0.5"/>
<stop offset="1" stop-color="#101010" stop-opacity="0"/>
</linearGradient>
<linearGradient id="paint35_linear_55_363" x1="266.036" y1="322.862" x2="266.036" y2="245.624" gradientUnits="userSpaceOnUse">
<stop stop-color="#101010"/>
<stop offset="0.5" stop-color="#101010" stop-opacity="0.5"/>
<stop offset="1" stop-color="#101010" stop-opacity="0"/>
</linearGradient>
<radialGradient id="paint36_radial_55_363" cx="0" cy="0" r="1" gradientUnits="userSpaceOnUse" gradientTransform="translate(356.315 200.486) scale(50.0608 50.2486)">
<stop stop-color="#5D9DF6"/>
<stop offset="1" stop-color="#006FFF"/>
</radialGradient>
<clipPath id="clip0_55_363">
<rect width="58.2766" height="58.4953" fill="white" transform="translate(352.389 56.1431)"/>
</clipPath>
<clipPath id="clip1_55_363">
<rect width="50.0608" height="52.2552" fill="white" transform="translate(122.698 173.39)"/>
</clipPath>
</defs>
</svg>
