<svg width="517" height="451" viewBox="0 0 517 451" fill="none" xmlns="http://www.w3.org/2000/svg">
<rect x="0.5" y="0.5" width="516" height="450" rx="24.5" fill="url(#paint0_radial_55_49)" stroke="url(#paint1_linear_55_49)"/>
<path d="M74.912 44.096C74.416 44.096 74 43.952 73.664 43.664C73.3333 43.3707 73.168 42.9573 73.168 42.424H74.096C74.096 42.6747 74.176 42.872 74.336 43.016C74.496 43.1547 74.688 43.224 74.912 43.224C75.1413 43.224 75.3307 43.152 75.48 43.008C75.6347 42.864 75.712 42.648 75.712 42.36V38.32H76.648V42.44C76.648 42.9947 76.4827 43.4107 76.152 43.688C75.8267 43.96 75.4133 44.096 74.912 44.096ZM77.2351 44L79.7151 38.32H80.5311L83.0111 44H82.0351L81.3871 42.512H78.8431L78.2031 44H77.2351ZM80.1151 39.584L79.2031 41.68H81.0271L80.1151 39.584ZM88.6949 44H87.8789L84.6789 39.912V44H83.7429V38.32H84.5589L87.7509 42.4V38.32H88.6949V44ZM95.4014 43.136V44H91.6414V43.68C91.6414 43.4773 91.6708 43.2853 91.7294 43.104C91.7934 42.9173 91.8601 42.7627 91.9294 42.64C91.9988 42.5173 92.1134 42.3813 92.2734 42.232C92.4334 42.0773 92.5561 41.968 92.6414 41.904C92.7268 41.8347 92.8761 41.7227 93.0894 41.568C93.3081 41.4133 93.4468 41.3147 93.5054 41.272C93.8414 41.0267 94.0841 40.8107 94.2334 40.624C94.3828 40.4373 94.4574 40.2133 94.4574 39.952C94.4574 39.6907 94.3774 39.4827 94.2174 39.328C94.0574 39.168 93.8361 39.088 93.5534 39.088C93.2601 39.088 93.0174 39.176 92.8254 39.352C92.6334 39.5227 92.5348 39.7573 92.5294 40.056H91.6414C91.6414 39.5173 91.8228 39.0773 92.1854 38.736C92.5534 38.3947 93.0121 38.224 93.5614 38.224C94.0681 38.224 94.4921 38.3733 94.8334 38.672C95.1748 38.9707 95.3454 39.3893 95.3454 39.928C95.3454 40.3547 95.2468 40.7147 95.0494 41.008C94.8574 41.296 94.5374 41.6 94.0894 41.92C94.0201 41.9733 93.8921 42.064 93.7054 42.192C93.5188 42.32 93.3801 42.4187 93.2894 42.488C93.2041 42.5573 93.1108 42.6533 93.0094 42.776C92.9081 42.8933 92.8388 43.0133 92.8014 43.136H95.4014ZM99.7809 43.472C99.3969 43.8773 98.9035 44.08 98.3009 44.08C97.6982 44.08 97.2049 43.8773 96.8209 43.472C96.4369 43.0613 96.2449 42.536 96.2449 41.896V40.408C96.2449 39.768 96.4369 39.2453 96.8209 38.84C97.2049 38.4293 97.6982 38.224 98.3009 38.224C98.9035 38.224 99.3969 38.4293 99.7809 38.84C100.17 39.2453 100.365 39.768 100.365 40.408V41.896C100.365 42.536 100.17 43.0613 99.7809 43.472ZM98.3009 43.216C98.6582 43.216 98.9435 43.0987 99.1569 42.864C99.3755 42.6293 99.4849 42.3067 99.4849 41.896V40.408C99.4849 39.9973 99.3755 39.6747 99.1569 39.44C98.9435 39.2053 98.6582 39.088 98.3009 39.088C97.9489 39.088 97.6635 39.2053 97.4449 39.44C97.2315 39.6747 97.1249 39.9973 97.1249 40.408V41.896C97.1249 42.3067 97.2315 42.6293 97.4449 42.864C97.6635 43.0987 97.9489 43.216 98.3009 43.216ZM104.933 43.136V44H101.173V43.68C101.173 43.4773 101.202 43.2853 101.261 43.104C101.325 42.9173 101.391 42.7627 101.461 42.64C101.53 42.5173 101.645 42.3813 101.805 42.232C101.965 42.0773 102.087 41.968 102.173 41.904C102.258 41.8347 102.407 41.7227 102.621 41.568C102.839 41.4133 102.978 41.3147 103.037 41.272C103.373 41.0267 103.615 40.8107 103.765 40.624C103.914 40.4373 103.989 40.2133 103.989 39.952C103.989 39.6907 103.909 39.4827 103.749 39.328C103.589 39.168 103.367 39.088 103.085 39.088C102.791 39.088 102.549 39.176 102.357 39.352C102.165 39.5227 102.066 39.7573 102.061 40.056H101.173C101.173 39.5173 101.354 39.0773 101.717 38.736C102.085 38.3947 102.543 38.224 103.093 38.224C103.599 38.224 104.023 38.3733 104.365 38.672C104.706 38.9707 104.877 39.3893 104.877 39.928C104.877 40.3547 104.778 40.7147 104.581 41.008C104.389 41.296 104.069 41.6 103.621 41.92C103.551 41.9733 103.423 42.064 103.237 42.192C103.05 42.32 102.911 42.4187 102.821 42.488C102.735 42.5573 102.642 42.6533 102.541 42.776C102.439 42.8933 102.37 43.0133 102.333 43.136H104.933ZM107.712 44.08C107.141 44.08 106.656 43.9093 106.256 43.568C105.861 43.2267 105.659 42.776 105.648 42.216H106.528C106.549 42.52 106.669 42.7627 106.888 42.944C107.112 43.1253 107.387 43.216 107.712 43.216C108.005 43.216 108.245 43.1387 108.432 42.984C108.624 42.8293 108.723 42.616 108.728 42.344C108.728 42.0453 108.629 41.8213 108.432 41.672C108.24 41.5173 107.973 41.44 107.632 41.44H107.184V40.688H107.632C107.915 40.688 108.139 40.6133 108.304 40.464C108.475 40.3147 108.563 40.12 108.568 39.88C108.568 39.6453 108.483 39.456 108.312 39.312C108.141 39.1627 107.931 39.088 107.68 39.088C107.381 39.088 107.133 39.176 106.936 39.352C106.739 39.5227 106.64 39.7573 106.64 40.056H105.752C105.752 39.5013 105.939 39.0587 106.312 38.728C106.691 38.392 107.147 38.224 107.68 38.224C108.208 38.224 108.635 38.3733 108.96 38.672C109.291 38.9707 109.456 39.3547 109.456 39.824C109.456 40.0853 109.389 40.328 109.256 40.552C109.123 40.7707 108.957 40.9387 108.76 41.056C109.021 41.168 109.229 41.3413 109.384 41.576C109.539 41.8107 109.616 42.0853 109.616 42.4C109.616 42.896 109.437 43.3013 109.08 43.616C108.728 43.9253 108.272 44.08 107.712 44.08Z" fill="#C4C4C4"/>
<rect x="40" y="35" width="28" height="12" rx="6" fill="#1595C2"/>
<path d="M45.696 38.32H46.552L48.536 41.008L50.528 38.32H51.384V44H50.44V39.928L48.544 42.504L46.632 39.92V44H45.696V38.32ZM52.1101 44L54.5901 38.32H55.4061L57.8861 44H56.9101L56.2621 42.512H53.7181L53.0781 44H52.1101ZM54.9901 39.584L54.0781 41.68H55.9021L54.9901 39.584ZM60.6304 44.096C59.953 44.096 59.4064 43.8853 58.9904 43.464C58.5744 43.0427 58.3664 42.48 58.3664 41.776V38.32H59.3024V41.792C59.3024 42.2347 59.4224 42.5787 59.6624 42.824C59.9024 43.0693 60.225 43.192 60.6304 43.192C61.0357 43.192 61.3557 43.0693 61.5904 42.824C61.8304 42.5787 61.9504 42.2347 61.9504 41.792V38.32H62.8864V41.776C62.8864 42.4747 62.6757 43.0373 62.2544 43.464C61.833 43.8853 61.2917 44.096 60.6304 44.096Z" fill="#101010"/>
<path d="M54.905 102.55C51.4583 102.55 48.47 101.468 45.94 99.305C43.41 97.105 42.1083 94.5567 42.035 91.66H45.995C46.435 93.7133 47.48 95.4183 49.13 96.775C50.8167 98.1317 52.7417 98.81 54.905 98.81C57.4717 98.81 59.635 97.93 61.395 96.17C63.155 94.3733 64.035 92.21 64.035 89.68C64.035 87.1133 63.1917 84.95 61.505 83.19C59.855 81.43 57.7467 80.55 55.18 80.55C51.8433 80.55 49.24 81.87 47.37 84.51L43.575 83.41L47.425 62.95H65.465V66.745H50.615L48.305 79.12C50.175 77.58 52.5767 76.81 55.51 76.81C59.14 76.81 62.1283 78.0933 64.475 80.66C66.8217 83.2267 67.995 86.435 67.995 90.285C67.995 93.6217 66.7117 96.5 64.145 98.92C61.615 101.34 58.535 102.55 54.905 102.55ZM79.4793 101.34C78.7826 102.073 77.9393 102.44 76.9493 102.44C75.9593 102.44 75.0976 102.073 74.3643 101.34C73.6676 100.607 73.3193 99.745 73.3193 98.755C73.3193 97.765 73.6676 96.9033 74.3643 96.17C75.0976 95.4367 75.9593 95.07 76.9493 95.07C77.9393 95.07 78.7826 95.4367 79.4793 96.17C80.2126 96.9033 80.5793 97.765 80.5793 98.755C80.5793 99.745 80.2126 100.607 79.4793 101.34ZM111.387 98.315V102H86.527V100.35C86.527 98.9933 86.7287 97.71 87.132 96.5C87.572 95.29 88.067 94.2633 88.617 93.42C89.2037 92.54 90.0103 91.605 91.037 90.615C92.0637 89.625 92.9437 88.855 93.677 88.305C94.447 87.755 95.492 87.0033 96.812 86.05C98.132 85.0967 99.1037 84.3817 99.727 83.905C101.23 82.7683 102.312 81.925 102.972 81.375C103.632 80.7883 104.329 80.0733 105.062 79.23C105.832 78.35 106.327 77.47 106.547 76.59C106.804 75.6733 106.932 74.5733 106.932 73.29C106.932 71.1267 106.199 69.385 104.732 68.065C103.302 66.7083 101.45 66.03 99.177 66.03C96.7203 66.03 94.6487 66.7633 92.962 68.23C91.312 69.66 90.4503 71.7317 90.377 74.445H86.417C86.417 70.815 87.6087 67.8817 89.992 65.645C92.412 63.4083 95.4187 62.29 99.012 62.29C102.385 62.29 105.209 63.28 107.482 65.26C109.755 67.2033 110.892 69.9533 110.892 73.51C110.892 76.1867 110.214 78.4967 108.857 80.44C107.537 82.3467 105.135 84.5833 101.652 87.15C100.955 87.6633 99.9653 88.36 98.682 89.24C97.3987 90.12 96.427 90.8167 95.767 91.33C95.1437 91.8067 94.4287 92.43 93.622 93.2C92.8153 93.97 92.192 94.7767 91.752 95.62C91.3487 96.4267 91.0553 97.325 90.872 98.315H111.387ZM135.211 102V90.89H114.036V87.755L135.761 62.95H139.061V87.205H144.561V90.89H139.061V102H135.211ZM119.206 87.205H135.211V68.945L119.206 87.205ZM171.255 102L155.25 87.975V102H151.4V60.75H155.25V85.335L168.175 74.5H173.62L159.155 86.6L176.755 102H171.255Z" fill="#C4C4C4"/>
<rect x="197" y="83.5" width="45" height="19.5" rx="7" fill="#101010"/>
<path d="M207.5 90L211.397 96.75H203.603L207.5 90Z" fill="#1595C2"/>
<path d="M220.04 96.33V97H215.52V96.7C215.52 96.4533 215.557 96.22 215.63 96C215.71 95.78 215.8 95.5933 215.9 95.44C216.007 95.28 216.153 95.11 216.34 94.93C216.527 94.75 216.687 94.61 216.82 94.51C216.96 94.41 217.15 94.2733 217.39 94.1C217.63 93.9267 217.807 93.7967 217.92 93.71C218.193 93.5033 218.39 93.35 218.51 93.25C218.63 93.1433 218.757 93.0133 218.89 92.86C219.03 92.7 219.12 92.54 219.16 92.38C219.207 92.2133 219.23 92.0133 219.23 91.78C219.23 91.3867 219.097 91.07 218.83 90.83C218.57 90.5833 218.233 90.46 217.82 90.46C217.373 90.46 216.997 90.5933 216.69 90.86C216.39 91.12 216.233 91.4967 216.22 91.99H215.5C215.5 91.33 215.717 90.7967 216.15 90.39C216.59 89.9833 217.137 89.78 217.79 89.78C218.403 89.78 218.917 89.96 219.33 90.32C219.743 90.6733 219.95 91.1733 219.95 91.82C219.95 92.3067 219.827 92.7267 219.58 93.08C219.34 93.4267 218.903 93.8333 218.27 94.3C218.143 94.3933 217.963 94.52 217.73 94.68C217.497 94.84 217.32 94.9667 217.2 95.06C217.087 95.1467 216.957 95.26 216.81 95.4C216.663 95.54 216.55 95.6867 216.47 95.84C216.397 95.9867 216.343 96.15 216.31 96.33H220.04ZM223.237 97.1C222.611 97.1 222.067 96.9033 221.607 96.51C221.147 96.11 220.911 95.6467 220.897 95.12H221.617C221.697 95.4933 221.887 95.8033 222.187 96.05C222.494 96.2967 222.844 96.42 223.237 96.42C223.704 96.42 224.097 96.26 224.417 95.94C224.737 95.6133 224.897 95.22 224.897 94.76C224.897 94.2933 224.744 93.9 224.437 93.58C224.137 93.26 223.754 93.1 223.287 93.1C222.681 93.1 222.207 93.34 221.867 93.82L221.177 93.62L221.877 89.9H225.157V90.59H222.457L222.037 92.84C222.377 92.56 222.814 92.42 223.347 92.42C224.007 92.42 224.551 92.6533 224.977 93.12C225.404 93.5867 225.617 94.17 225.617 94.87C225.617 95.4767 225.384 96 224.917 96.44C224.457 96.88 223.897 97.1 223.237 97.1ZM229.135 97H228.355L232.855 89.9H233.635L229.135 97ZM233.665 97.08C233.119 97.08 232.652 96.8867 232.265 96.5C231.885 96.1133 231.695 95.65 231.695 95.11C231.695 94.5633 231.885 94.1 232.265 93.72C232.652 93.3333 233.119 93.14 233.665 93.14C234.205 93.14 234.669 93.3333 235.055 93.72C235.442 94.1 235.635 94.5633 235.635 95.11C235.635 95.65 235.442 96.1133 235.055 96.5C234.669 96.8867 234.205 97.08 233.665 97.08ZM232.745 96.04C232.999 96.2933 233.305 96.42 233.665 96.42C234.025 96.42 234.332 96.2933 234.585 96.04C234.839 95.78 234.965 95.47 234.965 95.11C234.965 94.75 234.839 94.4433 234.585 94.19C234.332 93.93 234.025 93.8 233.665 93.8C233.305 93.8 232.999 93.93 232.745 94.19C232.492 94.4433 232.365 94.75 232.365 95.11C232.365 95.47 232.492 95.78 232.745 96.04ZM228.325 93.76C227.779 93.76 227.312 93.5667 226.925 93.18C226.545 92.7933 226.355 92.33 226.355 91.79C226.355 91.2433 226.545 90.78 226.925 90.4C227.312 90.0133 227.779 89.82 228.325 89.82C228.865 89.82 229.329 90.0133 229.715 90.4C230.102 90.78 230.295 91.2433 230.295 91.79C230.295 92.33 230.102 92.7933 229.715 93.18C229.329 93.5667 228.865 93.76 228.325 93.76ZM227.405 92.72C227.659 92.9733 227.965 93.1 228.325 93.1C228.685 93.1 228.992 92.9733 229.245 92.72C229.499 92.46 229.625 92.15 229.625 91.79C229.625 91.43 229.499 91.1233 229.245 90.87C228.992 90.61 228.685 90.48 228.325 90.48C227.965 90.48 227.659 90.61 227.405 90.87C227.152 91.1233 227.025 91.43 227.025 91.79C227.025 92.15 227.152 92.46 227.405 92.72Z" fill="#838383"/>
<path d="M63.0708 156.466L456.198 156.666" stroke="url(#paint2_linear_55_49)"/>
<path d="M63.0708 214.663L456.198 214.863" stroke="url(#paint3_linear_55_49)"/>
<path d="M63.0708 272.859L456.198 273.06" stroke="url(#paint4_linear_55_49)"/>
<path d="M63.0708 333.463L456.198 333.664" stroke="url(#paint5_linear_55_49)"/>
<g opacity="0.92322">
<path d="M62.8701 342.494L87.8479 277.846C89.1252 274.54 92.5639 270.27 95.5219 268.318L124.938 248.903C127.896 246.951 132.677 246.984 135.608 248.977L165.123 269.047C168.054 271.04 172.584 270.746 175.233 268.392L216.204 231.973C218.853 229.618 222.302 230.275 223.901 233.438L255.835 296.627C257.434 299.79 261.502 303.137 264.914 304.096L296.097 312.862C299.508 313.821 303.729 312.115 305.516 309.054L320.714 283.02C322.501 279.959 326.825 277.632 330.364 277.826L361.488 279.531C365.027 279.725 368.22 277.023 368.615 273.501L378.423 185.925C378.818 182.403 382.011 179.384 385.55 179.187L416.073 177.492C419.611 177.295 424.664 175.257 427.348 172.943L469.042 137" stroke="url(#paint6_linear_55_49)" stroke-width="2" stroke-linecap="round" stroke-linejoin="round" stroke-dasharray="8 8"/>
</g>
<path d="M66.4824 343.297L109.748 330.692C114.001 329.453 119.063 325.229 121.044 321.267L130.32 302.715C132.302 298.753 137.49 295.885 141.899 296.315L175.288 299.572C179.697 300.002 185.352 297.414 187.909 293.796L204.733 269.983C207.289 266.365 212.928 263.923 217.315 264.533L247.57 268.742C251.958 269.353 255.973 266.28 256.53 261.885L261.532 222.397C262.089 218.002 265.852 213.027 269.929 211.295L286.262 204.356C290.339 202.623 295.748 204.138 298.333 207.736L329.905 251.69C332.489 255.288 335.742 254.802 337.163 250.606L348.87 216.044C350.291 211.848 354.857 209.579 359.06 210.98L391.992 221.957C396.195 223.358 401.242 221.291 403.255 217.345L416.027 192.313C418.04 188.367 423.136 184.181 427.398 182.972L476.266 169.108" stroke="url(#paint7_linear_55_49)" stroke-width="2" stroke-linecap="round"/>
<path d="M43.544 158.536C43.176 158.899 42.728 159.08 42.2 159.08C41.672 159.08 41.2213 158.899 40.848 158.536C40.48 158.168 40.296 157.733 40.296 157.232C40.296 156.752 40.504 156.277 40.92 155.808L43.112 153.32H43.84L41.992 155.416C42.0933 155.389 42.2053 155.376 42.328 155.376C42.8133 155.376 43.2293 155.563 43.576 155.936C43.928 156.304 44.104 156.728 44.104 157.208C44.104 157.725 43.9173 158.168 43.544 158.536ZM41.256 158.152C41.512 158.408 41.8267 158.536 42.2 158.536C42.5733 158.536 42.888 158.408 43.144 158.152C43.4 157.891 43.528 157.576 43.528 157.208C43.528 156.84 43.4 156.528 43.144 156.272C42.888 156.011 42.5733 155.88 42.2 155.88C41.8267 155.88 41.512 156.011 41.256 156.272C41 156.528 40.872 156.84 40.872 157.208C40.872 157.576 41 157.891 41.256 158.152ZM49.0293 159L45.8373 156.256V159H45.2373V153.32H45.8373V155.808L48.4533 153.32H49.2773L46.4533 156.016L49.9333 159H49.0293Z" fill="#525252"/>
<path d="M42.168 217.08C41.6667 217.08 41.232 216.923 40.864 216.608C40.496 216.288 40.3067 215.917 40.296 215.496H40.872C40.936 215.795 41.088 216.043 41.328 216.24C41.5733 216.437 41.8533 216.536 42.168 216.536C42.5413 216.536 42.856 216.408 43.112 216.152C43.368 215.891 43.496 215.576 43.496 215.208C43.496 214.835 43.3733 214.52 43.128 214.264C42.888 214.008 42.5813 213.88 42.208 213.88C41.7227 213.88 41.344 214.072 41.072 214.456L40.52 214.296L41.08 211.32H43.704V211.872H41.544L41.208 213.672C41.48 213.448 41.8293 213.336 42.256 213.336C42.784 213.336 43.2187 213.523 43.56 213.896C43.9013 214.269 44.072 214.736 44.072 215.296C44.072 215.781 43.8853 216.2 43.512 216.552C43.144 216.904 42.696 217.08 42.168 217.08ZM48.9824 217L45.7904 214.256V217H45.1904V211.32H45.7904V213.808L48.4064 211.32H49.2304L46.4064 214.016L49.8864 217H48.9824Z" fill="#525252"/>
<path d="M43.216 275V273.384H40.136V272.928L43.296 269.32H43.776V272.848H44.576V273.384H43.776V275H43.216ZM40.888 272.848H43.216V270.192L40.888 272.848ZM49.4668 275L46.2748 272.256V275H45.6748V269.32H46.2748V271.808L48.8908 269.32H49.7148L46.8908 272.016L50.3708 275H49.4668Z" fill="#525252"/>
<path d="M42.376 336.08C41.8 336.08 41.3227 335.909 40.944 335.568C40.5653 335.227 40.376 334.805 40.376 334.304H40.952C40.9627 334.661 41.1067 334.957 41.384 335.192C41.6667 335.421 41.9973 335.536 42.376 335.536C42.728 335.536 43.0213 335.437 43.256 335.24C43.496 335.043 43.616 334.768 43.616 334.416C43.616 334.037 43.496 333.757 43.256 333.576C43.016 333.395 42.688 333.304 42.272 333.304H41.872V332.752H42.328C42.6373 332.752 42.9013 332.659 43.12 332.472C43.344 332.285 43.456 332.048 43.456 331.76C43.456 331.472 43.3467 331.235 43.128 331.048C42.9147 330.861 42.6507 330.768 42.336 330.768C41.9733 330.768 41.6693 330.872 41.424 331.08C41.184 331.288 41.0587 331.592 41.048 331.992H40.472C40.472 331.464 40.648 331.037 41 330.712C41.3573 330.387 41.8027 330.224 42.336 330.224C42.8107 330.224 43.2107 330.363 43.536 330.64C43.8667 330.917 44.032 331.291 44.032 331.76C44.0267 332.032 43.9493 332.28 43.8 332.504C43.656 332.723 43.464 332.888 43.224 333C43.5333 333.123 43.7707 333.309 43.936 333.56C44.1067 333.805 44.192 334.091 44.192 334.416C44.192 334.912 44.0213 335.315 43.68 335.624C43.344 335.928 42.9093 336.08 42.376 336.08ZM49.209 336L46.017 333.256V336H45.417V330.32H46.017V332.808L48.633 330.32H49.457L46.633 333.016L50.113 336H49.209Z" fill="#525252"/>
<rect x="285.5" y="36.5" width="107" height="23" rx="11.5" fill="#1E1E1E" fill-opacity="0.5" stroke="url(#paint8_linear_55_49)"/>
<path d="M300.752 51V45.32H302.384C303.253 45.32 303.973 45.5893 304.544 46.128C305.12 46.6667 305.408 47.344 305.408 48.16C305.408 48.976 305.12 49.6533 304.544 50.192C303.973 50.7307 303.253 51 302.384 51H300.752ZM301.496 50.304H302.384C303.061 50.304 303.608 50.104 304.024 49.704C304.445 49.2987 304.656 48.784 304.656 48.16C304.656 47.536 304.445 47.024 304.024 46.624C303.608 46.2187 303.061 46.016 302.384 46.016H301.496V50.304ZM308.062 51.08C307.507 51.08 307.04 50.8773 306.662 50.472C306.288 50.0667 306.102 49.576 306.102 49C306.102 48.424 306.288 47.9333 306.662 47.528C307.04 47.1227 307.507 46.92 308.062 46.92C308.355 46.92 308.627 46.9867 308.878 47.12C309.134 47.248 309.331 47.4133 309.47 47.616V47H310.158V51H309.47V50.384C309.331 50.5867 309.134 50.7547 308.878 50.888C308.627 51.016 308.355 51.08 308.062 51.08ZM308.166 50.448C308.56 50.448 308.886 50.3093 309.142 50.032C309.398 49.7547 309.526 49.4107 309.526 49C309.526 48.5893 309.398 48.2453 309.142 47.968C308.886 47.6907 308.56 47.552 308.166 47.552C307.766 47.552 307.438 47.6907 307.182 47.968C306.926 48.2453 306.798 48.5893 306.798 49C306.798 49.4107 306.926 49.7547 307.182 50.032C307.438 50.3093 307.766 50.448 308.166 50.448ZM312.149 45.792C312.058 45.8827 311.943 45.928 311.805 45.928C311.666 45.928 311.549 45.8827 311.453 45.792C311.357 45.696 311.309 45.5787 311.309 45.44C311.309 45.3067 311.357 45.192 311.453 45.096C311.549 45 311.666 44.952 311.805 44.952C311.943 44.952 312.058 45 312.149 45.096C312.239 45.192 312.285 45.3067 312.285 45.44C312.285 45.5787 312.239 45.696 312.149 45.792ZM311.453 51V47H312.141V51H311.453ZM313.445 51V45H314.133V51H313.445ZM316.501 52.672H315.733L316.605 50.792L314.853 47H315.613L316.989 50.04L318.357 47H319.125L316.501 52.672ZM323.21 51.08C322.655 51.08 322.189 50.8773 321.81 50.472C321.437 50.0667 321.25 49.576 321.25 49C321.25 48.424 321.437 47.9333 321.81 47.528C322.189 47.1227 322.655 46.92 323.21 46.92C323.503 46.92 323.775 46.9867 324.026 47.12C324.282 47.248 324.479 47.4133 324.618 47.616V47H325.306V51H324.618V50.384C324.479 50.5867 324.282 50.7547 324.026 50.888C323.775 51.016 323.503 51.08 323.21 51.08ZM323.314 50.448C323.709 50.448 324.034 50.3093 324.29 50.032C324.546 49.7547 324.674 49.4107 324.674 49C324.674 48.5893 324.546 48.2453 324.29 47.968C324.034 47.6907 323.709 47.552 323.314 47.552C322.914 47.552 322.586 47.6907 322.33 47.968C322.074 48.2453 321.946 48.5893 321.946 49C321.946 49.4107 322.074 49.7547 322.33 50.032C322.586 50.3093 322.914 50.448 323.314 50.448ZM328.377 51.08C327.774 51.08 327.276 50.88 326.881 50.48C326.486 50.0747 326.289 49.5813 326.289 49C326.289 48.4187 326.486 47.928 326.881 47.528C327.276 47.1227 327.774 46.92 328.377 46.92C328.873 46.92 329.302 47.0587 329.665 47.336C330.028 47.608 330.27 47.9653 330.393 48.408H329.657C329.561 48.1467 329.401 47.9387 329.177 47.784C328.953 47.6293 328.686 47.552 328.377 47.552C327.966 47.552 327.63 47.6907 327.369 47.968C327.113 48.2453 326.985 48.5893 326.985 49C326.985 49.4107 327.113 49.7547 327.369 50.032C327.63 50.3093 327.966 50.448 328.377 50.448C328.686 50.448 328.953 50.3707 329.177 50.216C329.401 50.0613 329.561 49.8533 329.657 49.592H330.393C330.276 50.0347 330.036 50.3947 329.673 50.672C329.31 50.944 328.878 51.08 328.377 51.08ZM332.817 51.04C332.449 51.04 332.153 50.936 331.929 50.728C331.705 50.52 331.593 50.216 331.593 49.816V47.632H330.745V47H331.593V45.888H332.281V47H333.433V47.632H332.281V49.728C332.281 49.9787 332.335 50.1547 332.441 50.256C332.548 50.3573 332.716 50.408 332.945 50.408C333.148 50.408 333.311 50.3813 333.433 50.328V50.944C333.241 51.008 333.036 51.04 332.817 51.04ZM335.008 45.792C334.917 45.8827 334.803 45.928 334.664 45.928C334.525 45.928 334.408 45.8827 334.312 45.792C334.216 45.696 334.168 45.5787 334.168 45.44C334.168 45.3067 334.216 45.192 334.312 45.096C334.408 45 334.525 44.952 334.664 44.952C334.803 44.952 334.917 45 335.008 45.096C335.099 45.192 335.144 45.3067 335.144 45.44C335.144 45.5787 335.099 45.696 335.008 45.792ZM334.312 51V47H335V51H334.312ZM337.552 51L335.704 47H336.472L337.84 50.032L339.208 47H339.976L338.128 51H337.552ZM342.289 51.08C341.708 51.08 341.226 50.8827 340.842 50.488C340.463 50.0933 340.274 49.5973 340.274 49C340.274 48.3973 340.458 47.9013 340.826 47.512C341.199 47.1173 341.692 46.92 342.306 46.92C342.924 46.92 343.41 47.1387 343.762 47.576C344.114 48.0133 344.268 48.5493 344.226 49.184H340.97C340.98 49.5467 341.114 49.8507 341.37 50.096C341.626 50.336 341.935 50.456 342.298 50.456C342.842 50.456 343.228 50.232 343.458 49.784H344.161C344.06 50.1573 343.844 50.4667 343.514 50.712C343.183 50.9573 342.775 51.08 342.289 51.08ZM343.074 47.816C342.855 47.624 342.591 47.528 342.282 47.528C341.972 47.528 341.695 47.6213 341.45 47.808C341.21 47.9947 341.06 48.272 341.002 48.64H343.498C343.434 48.2773 343.292 48.0027 343.074 47.816ZM348.564 51.08C348.127 51.08 347.772 50.9333 347.5 50.64C347.228 50.3413 347.092 49.9467 347.092 49.456V47H347.78V49.352C347.78 49.688 347.86 49.9547 348.02 50.152C348.185 50.3493 348.407 50.448 348.684 50.448C349.004 50.448 349.268 50.3173 349.476 50.056C349.689 49.7893 349.796 49.432 349.796 48.984V47H350.484V51H349.796V50.384C349.535 50.848 349.124 51.08 348.564 51.08ZM353.069 51.08C352.621 51.08 352.245 50.9707 351.941 50.752C351.642 50.5333 351.477 50.2293 351.445 49.84H352.149C352.191 50.064 352.298 50.2293 352.469 50.336C352.645 50.4427 352.847 50.496 353.077 50.496C353.306 50.496 353.49 50.4507 353.629 50.36C353.773 50.2693 353.845 50.1387 353.845 49.968C353.845 49.808 353.791 49.6773 353.685 49.576C353.583 49.4747 353.415 49.392 353.181 49.328L352.605 49.176C351.917 48.9947 351.573 48.6027 351.573 48C351.573 47.6747 351.701 47.4133 351.957 47.216C352.218 47.0187 352.551 46.92 352.957 46.92C353.367 46.92 353.703 47.0293 353.965 47.248C354.231 47.4613 354.381 47.7333 354.413 48.064H353.725C353.671 47.888 353.575 47.7493 353.437 47.648C353.303 47.5467 353.143 47.496 352.957 47.496C352.759 47.496 352.594 47.5413 352.461 47.632C352.333 47.7227 352.269 47.8427 352.269 47.992C352.269 48.136 352.317 48.2533 352.413 48.344C352.509 48.4347 352.663 48.5093 352.877 48.568L353.517 48.736C354.199 48.9067 354.541 49.3013 354.541 49.92C354.541 50.304 354.405 50.5947 354.133 50.792C353.861 50.984 353.506 51.08 353.069 51.08ZM357.219 51.08C356.638 51.08 356.155 50.8827 355.771 50.488C355.393 50.0933 355.203 49.5973 355.203 49C355.203 48.3973 355.387 47.9013 355.755 47.512C356.129 47.1173 356.622 46.92 357.235 46.92C357.854 46.92 358.339 47.1387 358.691 47.576C359.043 48.0133 359.198 48.5493 359.155 49.184H355.899C355.91 49.5467 356.043 49.8507 356.299 50.096C356.555 50.336 356.865 50.456 357.227 50.456C357.771 50.456 358.158 50.232 358.387 49.784H359.091C358.99 50.1573 358.774 50.4667 358.443 50.712C358.113 50.9573 357.705 51.08 357.219 51.08ZM358.003 47.816C357.785 47.624 357.521 47.528 357.211 47.528C356.902 47.528 356.625 47.6213 356.379 47.808C356.139 47.9947 355.99 48.272 355.931 48.64H358.427C358.363 48.2773 358.222 48.0027 358.003 47.816ZM360.148 51V47H360.836V47.776C360.911 47.5307 361.055 47.3333 361.268 47.184C361.487 47.0347 361.716 46.96 361.956 46.96C362.073 46.96 362.177 46.9707 362.268 46.992V47.704C362.172 47.6613 362.047 47.64 361.892 47.64C361.615 47.64 361.369 47.76 361.156 48C360.943 48.24 360.836 48.5787 360.836 49.016V51H360.148ZM364.295 51.08C363.847 51.08 363.471 50.9707 363.167 50.752C362.869 50.5333 362.703 50.2293 362.671 49.84H363.375C363.418 50.064 363.525 50.2293 363.695 50.336C363.871 50.4427 364.074 50.496 364.303 50.496C364.533 50.496 364.717 50.4507 364.855 50.36C364.999 50.2693 365.071 50.1387 365.071 49.968C365.071 49.808 365.018 49.6773 364.911 49.576C364.81 49.4747 364.642 49.392 364.407 49.328L363.831 49.176C363.143 48.9947 362.799 48.6027 362.799 48C362.799 47.6747 362.927 47.4133 363.183 47.216C363.445 47.0187 363.778 46.92 364.183 46.92C364.594 46.92 364.93 47.0293 365.191 47.248C365.458 47.4613 365.607 47.7333 365.639 48.064H364.951C364.898 47.888 364.802 47.7493 364.663 47.648C364.53 47.5467 364.37 47.496 364.183 47.496C363.986 47.496 363.821 47.5413 363.687 47.632C363.559 47.7227 363.495 47.8427 363.495 47.992C363.495 48.136 363.543 48.2533 363.639 48.344C363.735 48.4347 363.89 48.5093 364.103 48.568L364.743 48.736C365.426 48.9067 365.767 49.3013 365.767 49.92C365.767 50.304 365.631 50.5947 365.359 50.792C365.087 50.984 364.733 51.08 364.295 51.08Z" fill="#838383"/>
<path d="M374 48.0502L375.957 50.0068L377.963 48" stroke="#838383" stroke-width="1.5" stroke-linecap="round" stroke-linejoin="round"/>
<rect x="399.5" y="36.5" width="77" height="23" rx="11.5" fill="#1E1E1E" fill-opacity="0.5" stroke="url(#paint9_linear_55_49)"/>
<path d="M414.752 51V45.32H415.496V50.296H418.24V51H414.752ZM420.562 51.08C420.007 51.08 419.54 50.8773 419.162 50.472C418.788 50.0667 418.602 49.576 418.602 49C418.602 48.424 418.788 47.9333 419.162 47.528C419.54 47.1227 420.007 46.92 420.562 46.92C420.855 46.92 421.127 46.9867 421.378 47.12C421.634 47.248 421.831 47.4133 421.97 47.616V47H422.658V51H421.97V50.384C421.831 50.5867 421.634 50.7547 421.378 50.888C421.127 51.016 420.855 51.08 420.562 51.08ZM420.666 50.448C421.06 50.448 421.386 50.3093 421.642 50.032C421.898 49.7547 422.026 49.4107 422.026 49C422.026 48.5893 421.898 48.2453 421.642 47.968C421.386 47.6907 421.06 47.552 420.666 47.552C420.266 47.552 419.938 47.6907 419.682 47.968C419.426 48.2453 419.298 48.5893 419.298 49C419.298 49.4107 419.426 49.7547 419.682 50.032C419.938 50.3093 420.266 50.448 420.666 50.448ZM425.241 51.08C424.793 51.08 424.417 50.9707 424.113 50.752C423.814 50.5333 423.649 50.2293 423.617 49.84H424.321C424.363 50.064 424.47 50.2293 424.641 50.336C424.817 50.4427 425.019 50.496 425.249 50.496C425.478 50.496 425.662 50.4507 425.801 50.36C425.945 50.2693 426.017 50.1387 426.017 49.968C426.017 49.808 425.963 49.6773 425.857 49.576C425.755 49.4747 425.587 49.392 425.353 49.328L424.777 49.176C424.089 48.9947 423.745 48.6027 423.745 48C423.745 47.6747 423.873 47.4133 424.129 47.216C424.39 47.0187 424.723 46.92 425.129 46.92C425.539 46.92 425.875 47.0293 426.137 47.248C426.403 47.4613 426.553 47.7333 426.585 48.064H425.897C425.843 47.888 425.747 47.7493 425.609 47.648C425.475 47.5467 425.315 47.496 425.129 47.496C424.931 47.496 424.766 47.5413 424.633 47.632C424.505 47.7227 424.441 47.8427 424.441 47.992C424.441 48.136 424.489 48.2533 424.585 48.344C424.681 48.4347 424.835 48.5093 425.049 48.568L425.689 48.736C426.371 48.9067 426.713 49.3013 426.713 49.92C426.713 50.304 426.577 50.5947 426.305 50.792C426.033 50.984 425.678 51.08 425.241 51.08ZM429.177 51.04C428.809 51.04 428.513 50.936 428.289 50.728C428.065 50.52 427.953 50.216 427.953 49.816V47.632H427.105V47H427.953V45.888H428.641V47H429.793V47.632H428.641V49.728C428.641 49.9787 428.694 50.1547 428.801 50.256C428.907 50.3573 429.075 50.408 429.305 50.408C429.507 50.408 429.67 50.3813 429.793 50.328V50.944C429.601 51.008 429.395 51.04 429.177 51.04ZM436.025 50.336V51H432.345V50.728C432.345 50.5307 432.374 50.344 432.433 50.168C432.497 49.9867 432.566 49.8347 432.641 49.712C432.716 49.5893 432.833 49.4533 432.993 49.304C433.153 49.1493 433.278 49.0373 433.369 48.968C433.46 48.8933 433.612 48.7813 433.825 48.632C434.038 48.4773 434.18 48.376 434.249 48.328C434.628 48.0507 434.889 47.8187 435.033 47.632C435.182 47.44 435.257 47.1893 435.257 46.88C435.257 46.5813 435.161 46.344 434.969 46.168C434.777 45.9867 434.526 45.896 434.217 45.896C433.892 45.896 433.614 45.9947 433.385 46.192C433.156 46.3893 433.041 46.664 433.041 47.016H432.337C432.337 46.4827 432.513 46.0507 432.865 45.72C433.222 45.3893 433.67 45.224 434.209 45.224C434.71 45.224 435.126 45.368 435.457 45.656C435.793 45.944 435.961 46.3547 435.961 46.888C435.961 47.2933 435.862 47.64 435.665 47.928C435.468 48.2107 435.129 48.5253 434.649 48.872C434.558 48.936 434.43 49.0267 434.265 49.144C434.1 49.256 433.972 49.3467 433.881 49.416C433.79 49.4853 433.689 49.5707 433.577 49.672C433.47 49.768 433.385 49.872 433.321 49.984C433.262 50.0907 433.22 50.208 433.193 50.336H436.025ZM438.702 51.08C438.147 51.08 437.689 50.912 437.326 50.576C436.969 50.24 436.79 49.8133 436.79 49.296C436.79 48.6027 437.089 48.1093 437.686 47.816C437.297 47.5387 437.102 47.1627 437.102 46.688C437.102 46.2613 437.251 45.912 437.55 45.64C437.854 45.3627 438.238 45.224 438.702 45.224C439.171 45.224 439.553 45.3627 439.846 45.64C440.145 45.912 440.294 46.2613 440.294 46.688C440.294 47.168 440.102 47.544 439.718 47.816C440.31 48.1093 440.606 48.6027 440.606 49.296C440.606 49.8133 440.427 50.24 440.07 50.576C439.718 50.912 439.262 51.08 438.702 51.08ZM438.702 50.424C439.075 50.424 439.369 50.3173 439.582 50.104C439.801 49.8907 439.91 49.6213 439.91 49.296C439.91 48.9653 439.801 48.6933 439.582 48.48C439.369 48.2667 439.075 48.16 438.702 48.16C438.339 48.16 438.046 48.2693 437.822 48.488C437.598 48.7013 437.486 48.9707 437.486 49.296C437.486 49.616 437.598 49.8853 437.822 50.104C438.046 50.3173 438.339 50.424 438.702 50.424ZM438.702 47.544C438.979 47.544 439.201 47.464 439.366 47.304C439.531 47.1387 439.614 46.9387 439.614 46.704C439.614 46.4587 439.531 46.2587 439.366 46.104C439.206 45.9493 438.985 45.872 438.702 45.872C438.43 45.872 438.209 45.952 438.038 46.112C437.867 46.2667 437.782 46.464 437.782 46.704C437.782 46.9333 437.867 47.1307 438.038 47.296C438.209 47.4613 438.43 47.544 438.702 47.544ZM445.21 51.08C444.655 51.08 444.189 50.8773 443.81 50.472C443.437 50.0667 443.25 49.576 443.25 49C443.25 48.424 443.437 47.9333 443.81 47.528C444.189 47.1227 444.655 46.92 445.21 46.92C445.503 46.92 445.775 46.9867 446.026 47.12C446.282 47.248 446.479 47.4133 446.618 47.616V45H447.306V51H446.618V50.384C446.479 50.5867 446.282 50.7547 446.026 50.888C445.775 51.016 445.503 51.08 445.21 51.08ZM445.314 50.448C445.709 50.448 446.034 50.3093 446.29 50.032C446.546 49.7547 446.674 49.4107 446.674 49C446.674 48.5893 446.546 48.2453 446.29 47.968C446.034 47.6907 445.709 47.552 445.314 47.552C444.914 47.552 444.586 47.6907 444.33 47.968C444.074 48.2453 443.946 48.5893 443.946 49C443.946 49.4107 444.074 49.7547 444.33 50.032C444.586 50.3093 444.914 50.448 445.314 50.448ZM450.249 51.08C449.694 51.08 449.228 50.8773 448.849 50.472C448.476 50.0667 448.289 49.576 448.289 49C448.289 48.424 448.476 47.9333 448.849 47.528C449.228 47.1227 449.694 46.92 450.249 46.92C450.542 46.92 450.814 46.9867 451.065 47.12C451.321 47.248 451.518 47.4133 451.657 47.616V47H452.345V51H451.657V50.384C451.518 50.5867 451.321 50.7547 451.065 50.888C450.814 51.016 450.542 51.08 450.249 51.08ZM450.353 50.448C450.748 50.448 451.073 50.3093 451.329 50.032C451.585 49.7547 451.713 49.4107 451.713 49C451.713 48.5893 451.585 48.2453 451.329 47.968C451.073 47.6907 450.748 47.552 450.353 47.552C449.953 47.552 449.625 47.6907 449.369 47.968C449.113 48.2453 448.985 48.5893 448.985 49C448.985 49.4107 449.113 49.7547 449.369 50.032C449.625 50.3093 449.953 50.448 450.353 50.448ZM454.704 52.672H453.936L454.808 50.792L453.056 47H453.816L455.192 50.04L456.56 47H457.328L454.704 52.672ZM459.256 51.08C458.808 51.08 458.432 50.9707 458.128 50.752C457.83 50.5333 457.664 50.2293 457.632 49.84H458.336C458.379 50.064 458.486 50.2293 458.656 50.336C458.832 50.4427 459.035 50.496 459.264 50.496C459.494 50.496 459.678 50.4507 459.816 50.36C459.96 50.2693 460.032 50.1387 460.032 49.968C460.032 49.808 459.979 49.6773 459.872 49.576C459.771 49.4747 459.603 49.392 459.368 49.328L458.792 49.176C458.104 48.9947 457.76 48.6027 457.76 48C457.76 47.6747 457.888 47.4133 458.144 47.216C458.406 47.0187 458.739 46.92 459.144 46.92C459.555 46.92 459.891 47.0293 460.152 47.248C460.419 47.4613 460.568 47.7333 460.6 48.064H459.912C459.859 47.888 459.763 47.7493 459.624 47.648C459.491 47.5467 459.331 47.496 459.144 47.496C458.947 47.496 458.782 47.5413 458.648 47.632C458.52 47.7227 458.456 47.8427 458.456 47.992C458.456 48.136 458.504 48.2533 458.6 48.344C458.696 48.4347 458.851 48.5093 459.064 48.568L459.704 48.736C460.387 48.9067 460.728 49.3013 460.728 49.92C460.728 50.304 460.592 50.5947 460.32 50.792C460.048 50.984 459.694 51.08 459.256 51.08Z" fill="#838383"/>
<defs>
<radialGradient id="paint0_radial_55_49" cx="0" cy="0" r="1" gradientUnits="userSpaceOnUse" gradientTransform="translate(136.293 64.4321) scale(334.096 334.747)">
<stop stop-color="#1A1A1A"/>
<stop offset="0.5" stop-color="#151515"/>
<stop offset="1" stop-color="#101010"/>
</radialGradient>
<linearGradient id="paint1_linear_55_49" x1="142.994" y1="184.126" x2="47.1001" y2="1.44213" gradientUnits="userSpaceOnUse">
<stop stop-color="white" stop-opacity="0"/>
<stop offset="0.17" stop-color="white" stop-opacity="0.05"/>
<stop offset="0.33" stop-color="white" stop-opacity="0.1"/>
</linearGradient>
<linearGradient id="paint2_linear_55_49" x1="212.174" y1="179.945" x2="426.94" y2="179.945" gradientUnits="userSpaceOnUse">
<stop stop-color="white" stop-opacity="0.08"/>
<stop offset="0.5" stop-color="white" stop-opacity="0.04"/>
<stop offset="1" stop-color="white" stop-opacity="0"/>
</linearGradient>
<linearGradient id="paint3_linear_55_49" x1="212.174" y1="238.142" x2="366.035" y2="238.142" gradientUnits="userSpaceOnUse">
<stop stop-color="white" stop-opacity="0.07"/>
<stop offset="0.5" stop-color="white" stop-opacity="0.035"/>
<stop offset="1" stop-color="white" stop-opacity="0"/>
</linearGradient>
<linearGradient id="paint4_linear_55_49" x1="212.174" y1="296.338" x2="329.38" y2="296.338" gradientUnits="userSpaceOnUse">
<stop stop-color="white" stop-opacity="0.06"/>
<stop offset="0.5" stop-color="white" stop-opacity="0.03"/>
<stop offset="1" stop-color="white" stop-opacity="0"/>
</linearGradient>
<linearGradient id="paint5_linear_55_49" x1="212.174" y1="356.943" x2="292.445" y2="356.943" gradientUnits="userSpaceOnUse">
<stop stop-color="white" stop-opacity="0.05"/>
<stop offset="0.5" stop-color="white" stop-opacity="0.025"/>
<stop offset="1" stop-color="white" stop-opacity="0"/>
</linearGradient>
<linearGradient id="paint6_linear_55_49" x1="87.3086" y1="312.054" x2="453.135" y2="137.972" gradientUnits="userSpaceOnUse">
<stop offset="0.18" stop-color="white" stop-opacity="0.1"/>
<stop offset="0.59" stop-color="white" stop-opacity="0.2"/>
<stop offset="1" stop-color="white" stop-opacity="0.3"/>
</linearGradient>
<linearGradient id="paint7_linear_55_49" x1="146.344" y1="265.838" x2="378.142" y2="151.776" gradientUnits="userSpaceOnUse">
<stop stop-color="#1595C2"/>
<stop offset="0.5" stop-color="#0386B4"/>
<stop offset="1" stop-color="#47BEE8"/>
</linearGradient>
<linearGradient id="paint8_linear_55_49" x1="314.871" y1="45.7983" x2="313.242" y2="33.6159" gradientUnits="userSpaceOnUse">
<stop stop-color="white" stop-opacity="0"/>
<stop offset="0.17" stop-color="white" stop-opacity="0.05"/>
<stop offset="0.33" stop-color="white" stop-opacity="0.1"/>
</linearGradient>
<linearGradient id="paint9_linear_55_49" x1="420.574" y1="45.7983" x2="418.354" y2="33.8091" gradientUnits="userSpaceOnUse">
<stop stop-color="white" stop-opacity="0"/>
<stop offset="0.17" stop-color="white" stop-opacity="0.05"/>
<stop offset="0.33" stop-color="white" stop-opacity="0.1"/>
</linearGradient>
</defs>
</svg>
